%TF.GenerationSoftware,KiCad,Pcbnew,7.0.5*%
%TF.CreationDate,2023-07-03T19:11:47+08:00*%
%TF.ProjectId,raspnixie-kicad,72617370-6e69-4786-9965-2d6b69636164,rev?*%
%TF.SameCoordinates,Original*%
%TF.FileFunction,Legend,Top*%
%TF.FilePolarity,Positive*%
%FSLAX46Y46*%
G04 Gerber Fmt 4.6, Leading zero omitted, Abs format (unit mm)*
G04 Created by KiCad (PCBNEW 7.0.5) date 2023-07-03 19:11:47*
%MOMM*%
%LPD*%
G01*
G04 APERTURE LIST*
G04 Aperture macros list*
%AMRoundRect*
0 Rectangle with rounded corners*
0 $1 Rounding radius*
0 $2 $3 $4 $5 $6 $7 $8 $9 X,Y pos of 4 corners*
0 Add a 4 corners polygon primitive as box body*
4,1,4,$2,$3,$4,$5,$6,$7,$8,$9,$2,$3,0*
0 Add four circle primitives for the rounded corners*
1,1,$1+$1,$2,$3*
1,1,$1+$1,$4,$5*
1,1,$1+$1,$6,$7*
1,1,$1+$1,$8,$9*
0 Add four rect primitives between the rounded corners*
20,1,$1+$1,$2,$3,$4,$5,0*
20,1,$1+$1,$4,$5,$6,$7,0*
20,1,$1+$1,$6,$7,$8,$9,0*
20,1,$1+$1,$8,$9,$2,$3,0*%
G04 Aperture macros list end*
%ADD10C,0.150000*%
%ADD11C,0.200000*%
%ADD12C,0.120000*%
%ADD13C,0.800000*%
%ADD14C,5.400000*%
%ADD15R,2.700000X3.600000*%
%ADD16R,1.560000X0.650000*%
%ADD17R,1.900000X0.800000*%
%ADD18RoundRect,0.250000X0.650000X-0.412500X0.650000X0.412500X-0.650000X0.412500X-0.650000X-0.412500X0*%
%ADD19C,1.600000*%
%ADD20R,2.000000X2.000000*%
%ADD21C,2.000000*%
%ADD22RoundRect,0.250000X0.400000X0.625000X-0.400000X0.625000X-0.400000X-0.625000X0.400000X-0.625000X0*%
%ADD23RoundRect,0.250000X0.625000X-0.400000X0.625000X0.400000X-0.625000X0.400000X-0.625000X-0.400000X0*%
%ADD24R,1.600000X2.400000*%
%ADD25O,1.600000X2.400000*%
%ADD26R,2.400000X1.600000*%
%ADD27O,2.400000X1.600000*%
%ADD28RoundRect,0.150000X0.150000X-0.725000X0.150000X0.725000X-0.150000X0.725000X-0.150000X-0.725000X0*%
%ADD29R,1.200000X1.200000*%
%ADD30R,1.500000X1.600000*%
%ADD31RoundRect,0.250000X-0.412500X-0.650000X0.412500X-0.650000X0.412500X0.650000X-0.412500X0.650000X0*%
%ADD32R,2.200000X1.200000*%
%ADD33R,2.000000X1.905000*%
%ADD34O,2.000000X1.905000*%
%ADD35R,3.500000X3.500000*%
%ADD36RoundRect,0.750000X-1.000000X0.750000X-1.000000X-0.750000X1.000000X-0.750000X1.000000X0.750000X0*%
%ADD37RoundRect,0.875000X-0.875000X0.875000X-0.875000X-0.875000X0.875000X-0.875000X0.875000X0.875000X0*%
G04 APERTURE END LIST*
D10*
X133045200Y-87274400D02*
X133096000Y-84582000D01*
X131661819Y-51409523D02*
X131661819Y-50952380D01*
X132661819Y-51180952D02*
X131661819Y-51180952D01*
X131661819Y-50761904D02*
X132661819Y-50228570D01*
X131661819Y-50228570D02*
X132661819Y-50761904D01*
X132661819Y-48698094D02*
X132185628Y-48964761D01*
X132661819Y-49155237D02*
X131661819Y-49155237D01*
X131661819Y-49155237D02*
X131661819Y-48850475D01*
X131661819Y-48850475D02*
X131709438Y-48774285D01*
X131709438Y-48774285D02*
X131757057Y-48736190D01*
X131757057Y-48736190D02*
X131852295Y-48698094D01*
X131852295Y-48698094D02*
X131995152Y-48698094D01*
X131995152Y-48698094D02*
X132090390Y-48736190D01*
X132090390Y-48736190D02*
X132138009Y-48774285D01*
X132138009Y-48774285D02*
X132185628Y-48850475D01*
X132185628Y-48850475D02*
X132185628Y-49155237D01*
X131661819Y-48469523D02*
X131661819Y-48012380D01*
X132661819Y-48240952D02*
X131661819Y-48240952D01*
X132614200Y-47783809D02*
X132661819Y-47669523D01*
X132661819Y-47669523D02*
X132661819Y-47479047D01*
X132661819Y-47479047D02*
X132614200Y-47402856D01*
X132614200Y-47402856D02*
X132566580Y-47364761D01*
X132566580Y-47364761D02*
X132471342Y-47326666D01*
X132471342Y-47326666D02*
X132376104Y-47326666D01*
X132376104Y-47326666D02*
X132280866Y-47364761D01*
X132280866Y-47364761D02*
X132233247Y-47402856D01*
X132233247Y-47402856D02*
X132185628Y-47479047D01*
X132185628Y-47479047D02*
X132138009Y-47631428D01*
X132138009Y-47631428D02*
X132090390Y-47707618D01*
X132090390Y-47707618D02*
X132042771Y-47745713D01*
X132042771Y-47745713D02*
X131947533Y-47783809D01*
X131947533Y-47783809D02*
X131852295Y-47783809D01*
X131852295Y-47783809D02*
X131757057Y-47745713D01*
X131757057Y-47745713D02*
X131709438Y-47707618D01*
X131709438Y-47707618D02*
X131661819Y-47631428D01*
X131661819Y-47631428D02*
X131661819Y-47440951D01*
X131661819Y-47440951D02*
X131709438Y-47326666D01*
X132661819Y-46348570D02*
X131661819Y-46348570D01*
X131661819Y-46348570D02*
X132661819Y-45891427D01*
X132661819Y-45891427D02*
X131661819Y-45891427D01*
X132566580Y-45053332D02*
X132614200Y-45091428D01*
X132614200Y-45091428D02*
X132661819Y-45205713D01*
X132661819Y-45205713D02*
X132661819Y-45281904D01*
X132661819Y-45281904D02*
X132614200Y-45396190D01*
X132614200Y-45396190D02*
X132518961Y-45472380D01*
X132518961Y-45472380D02*
X132423723Y-45510475D01*
X132423723Y-45510475D02*
X132233247Y-45548571D01*
X132233247Y-45548571D02*
X132090390Y-45548571D01*
X132090390Y-45548571D02*
X131899914Y-45510475D01*
X131899914Y-45510475D02*
X131804676Y-45472380D01*
X131804676Y-45472380D02*
X131709438Y-45396190D01*
X131709438Y-45396190D02*
X131661819Y-45281904D01*
X131661819Y-45281904D02*
X131661819Y-45205713D01*
X131661819Y-45205713D02*
X131709438Y-45091428D01*
X131709438Y-45091428D02*
X131757057Y-45053332D01*
X132661819Y-53473332D02*
X132185628Y-53739999D01*
X132661819Y-53930475D02*
X131661819Y-53930475D01*
X131661819Y-53930475D02*
X131661819Y-53625713D01*
X131661819Y-53625713D02*
X131709438Y-53549523D01*
X131709438Y-53549523D02*
X131757057Y-53511428D01*
X131757057Y-53511428D02*
X131852295Y-53473332D01*
X131852295Y-53473332D02*
X131995152Y-53473332D01*
X131995152Y-53473332D02*
X132090390Y-53511428D01*
X132090390Y-53511428D02*
X132138009Y-53549523D01*
X132138009Y-53549523D02*
X132185628Y-53625713D01*
X132185628Y-53625713D02*
X132185628Y-53930475D01*
X131661819Y-53206666D02*
X132661819Y-52673332D01*
X131661819Y-52673332D02*
X132661819Y-53206666D01*
X131709438Y-56489523D02*
X131661819Y-56565713D01*
X131661819Y-56565713D02*
X131661819Y-56679999D01*
X131661819Y-56679999D02*
X131709438Y-56794285D01*
X131709438Y-56794285D02*
X131804676Y-56870475D01*
X131804676Y-56870475D02*
X131899914Y-56908570D01*
X131899914Y-56908570D02*
X132090390Y-56946666D01*
X132090390Y-56946666D02*
X132233247Y-56946666D01*
X132233247Y-56946666D02*
X132423723Y-56908570D01*
X132423723Y-56908570D02*
X132518961Y-56870475D01*
X132518961Y-56870475D02*
X132614200Y-56794285D01*
X132614200Y-56794285D02*
X132661819Y-56679999D01*
X132661819Y-56679999D02*
X132661819Y-56603808D01*
X132661819Y-56603808D02*
X132614200Y-56489523D01*
X132614200Y-56489523D02*
X132566580Y-56451427D01*
X132566580Y-56451427D02*
X132233247Y-56451427D01*
X132233247Y-56451427D02*
X132233247Y-56603808D01*
X132661819Y-56108570D02*
X131661819Y-56108570D01*
X131661819Y-56108570D02*
X132661819Y-55651427D01*
X132661819Y-55651427D02*
X131661819Y-55651427D01*
X132661819Y-55270475D02*
X131661819Y-55270475D01*
X131661819Y-55270475D02*
X131661819Y-55079999D01*
X131661819Y-55079999D02*
X131709438Y-54965713D01*
X131709438Y-54965713D02*
X131804676Y-54889523D01*
X131804676Y-54889523D02*
X131899914Y-54851428D01*
X131899914Y-54851428D02*
X132090390Y-54813332D01*
X132090390Y-54813332D02*
X132233247Y-54813332D01*
X132233247Y-54813332D02*
X132423723Y-54851428D01*
X132423723Y-54851428D02*
X132518961Y-54889523D01*
X132518961Y-54889523D02*
X132614200Y-54965713D01*
X132614200Y-54965713D02*
X132661819Y-55079999D01*
X132661819Y-55079999D02*
X132661819Y-55270475D01*
D11*
X133627128Y-86553086D02*
X132627128Y-86553086D01*
X132912842Y-86553086D02*
X132769985Y-86481657D01*
X132769985Y-86481657D02*
X132698557Y-86410229D01*
X132698557Y-86410229D02*
X132627128Y-86267371D01*
X132627128Y-86267371D02*
X132627128Y-86124514D01*
X133627128Y-84981658D02*
X132841414Y-84981658D01*
X132841414Y-84981658D02*
X132698557Y-85053086D01*
X132698557Y-85053086D02*
X132627128Y-85195943D01*
X132627128Y-85195943D02*
X132627128Y-85481658D01*
X132627128Y-85481658D02*
X132698557Y-85624515D01*
X133555700Y-84981658D02*
X133627128Y-85124515D01*
X133627128Y-85124515D02*
X133627128Y-85481658D01*
X133627128Y-85481658D02*
X133555700Y-85624515D01*
X133555700Y-85624515D02*
X133412842Y-85695943D01*
X133412842Y-85695943D02*
X133269985Y-85695943D01*
X133269985Y-85695943D02*
X133127128Y-85624515D01*
X133127128Y-85624515D02*
X133055700Y-85481658D01*
X133055700Y-85481658D02*
X133055700Y-85124515D01*
X133055700Y-85124515D02*
X132984271Y-84981658D01*
X133555700Y-84338800D02*
X133627128Y-84195943D01*
X133627128Y-84195943D02*
X133627128Y-83910229D01*
X133627128Y-83910229D02*
X133555700Y-83767372D01*
X133555700Y-83767372D02*
X133412842Y-83695943D01*
X133412842Y-83695943D02*
X133341414Y-83695943D01*
X133341414Y-83695943D02*
X133198557Y-83767372D01*
X133198557Y-83767372D02*
X133127128Y-83910229D01*
X133127128Y-83910229D02*
X133127128Y-84124515D01*
X133127128Y-84124515D02*
X133055700Y-84267372D01*
X133055700Y-84267372D02*
X132912842Y-84338800D01*
X132912842Y-84338800D02*
X132841414Y-84338800D01*
X132841414Y-84338800D02*
X132698557Y-84267372D01*
X132698557Y-84267372D02*
X132627128Y-84124515D01*
X132627128Y-84124515D02*
X132627128Y-83910229D01*
X132627128Y-83910229D02*
X132698557Y-83767372D01*
X132627128Y-83053086D02*
X134127128Y-83053086D01*
X132698557Y-83053086D02*
X132627128Y-82910229D01*
X132627128Y-82910229D02*
X132627128Y-82624514D01*
X132627128Y-82624514D02*
X132698557Y-82481657D01*
X132698557Y-82481657D02*
X132769985Y-82410229D01*
X132769985Y-82410229D02*
X132912842Y-82338800D01*
X132912842Y-82338800D02*
X133341414Y-82338800D01*
X133341414Y-82338800D02*
X133484271Y-82410229D01*
X133484271Y-82410229D02*
X133555700Y-82481657D01*
X133555700Y-82481657D02*
X133627128Y-82624514D01*
X133627128Y-82624514D02*
X133627128Y-82910229D01*
X133627128Y-82910229D02*
X133555700Y-83053086D01*
X132627128Y-81695943D02*
X133627128Y-81695943D01*
X132769985Y-81695943D02*
X132698557Y-81624514D01*
X132698557Y-81624514D02*
X132627128Y-81481657D01*
X132627128Y-81481657D02*
X132627128Y-81267371D01*
X132627128Y-81267371D02*
X132698557Y-81124514D01*
X132698557Y-81124514D02*
X132841414Y-81053086D01*
X132841414Y-81053086D02*
X133627128Y-81053086D01*
X133627128Y-80338800D02*
X132627128Y-80338800D01*
X132127128Y-80338800D02*
X132198557Y-80410228D01*
X132198557Y-80410228D02*
X132269985Y-80338800D01*
X132269985Y-80338800D02*
X132198557Y-80267371D01*
X132198557Y-80267371D02*
X132127128Y-80338800D01*
X132127128Y-80338800D02*
X132269985Y-80338800D01*
X133627128Y-79767371D02*
X132627128Y-78981657D01*
X132627128Y-79767371D02*
X133627128Y-78981657D01*
X133627128Y-78410228D02*
X132627128Y-78410228D01*
X132127128Y-78410228D02*
X132198557Y-78481656D01*
X132198557Y-78481656D02*
X132269985Y-78410228D01*
X132269985Y-78410228D02*
X132198557Y-78338799D01*
X132198557Y-78338799D02*
X132127128Y-78410228D01*
X132127128Y-78410228D02*
X132269985Y-78410228D01*
X133555700Y-77124513D02*
X133627128Y-77267370D01*
X133627128Y-77267370D02*
X133627128Y-77553085D01*
X133627128Y-77553085D02*
X133555700Y-77695942D01*
X133555700Y-77695942D02*
X133412842Y-77767370D01*
X133412842Y-77767370D02*
X132841414Y-77767370D01*
X132841414Y-77767370D02*
X132698557Y-77695942D01*
X132698557Y-77695942D02*
X132627128Y-77553085D01*
X132627128Y-77553085D02*
X132627128Y-77267370D01*
X132627128Y-77267370D02*
X132698557Y-77124513D01*
X132698557Y-77124513D02*
X132841414Y-77053085D01*
X132841414Y-77053085D02*
X132984271Y-77053085D01*
X132984271Y-77053085D02*
X133127128Y-77767370D01*
D10*
X131661819Y-59410476D02*
X131661819Y-58915238D01*
X131661819Y-58915238D02*
X132042771Y-59181904D01*
X132042771Y-59181904D02*
X132042771Y-59067619D01*
X132042771Y-59067619D02*
X132090390Y-58991428D01*
X132090390Y-58991428D02*
X132138009Y-58953333D01*
X132138009Y-58953333D02*
X132233247Y-58915238D01*
X132233247Y-58915238D02*
X132471342Y-58915238D01*
X132471342Y-58915238D02*
X132566580Y-58953333D01*
X132566580Y-58953333D02*
X132614200Y-58991428D01*
X132614200Y-58991428D02*
X132661819Y-59067619D01*
X132661819Y-59067619D02*
X132661819Y-59296190D01*
X132661819Y-59296190D02*
X132614200Y-59372381D01*
X132614200Y-59372381D02*
X132566580Y-59410476D01*
X131661819Y-58686666D02*
X132661819Y-58419999D01*
X132661819Y-58419999D02*
X131661819Y-58153333D01*
X131661819Y-57962857D02*
X131661819Y-57467619D01*
X131661819Y-57467619D02*
X132042771Y-57734285D01*
X132042771Y-57734285D02*
X132042771Y-57620000D01*
X132042771Y-57620000D02*
X132090390Y-57543809D01*
X132090390Y-57543809D02*
X132138009Y-57505714D01*
X132138009Y-57505714D02*
X132233247Y-57467619D01*
X132233247Y-57467619D02*
X132471342Y-57467619D01*
X132471342Y-57467619D02*
X132566580Y-57505714D01*
X132566580Y-57505714D02*
X132614200Y-57543809D01*
X132614200Y-57543809D02*
X132661819Y-57620000D01*
X132661819Y-57620000D02*
X132661819Y-57848571D01*
X132661819Y-57848571D02*
X132614200Y-57924762D01*
X132614200Y-57924762D02*
X132566580Y-57962857D01*
X132487200Y-84518523D02*
X132534819Y-84613761D01*
X132534819Y-84613761D02*
X132534819Y-84804237D01*
X132534819Y-84804237D02*
X132487200Y-84899475D01*
X132487200Y-84899475D02*
X132391961Y-84947094D01*
X132391961Y-84947094D02*
X132011009Y-84947094D01*
X132011009Y-84947094D02*
X131915771Y-84899475D01*
X131915771Y-84899475D02*
X131868152Y-84804237D01*
X131868152Y-84804237D02*
X131868152Y-84613761D01*
X131868152Y-84613761D02*
X131915771Y-84518523D01*
X131915771Y-84518523D02*
X132011009Y-84470904D01*
X132011009Y-84470904D02*
X132106247Y-84470904D01*
X132106247Y-84470904D02*
X132201485Y-84947094D01*
X132661819Y-44094285D02*
X131661819Y-44094285D01*
X131661819Y-44094285D02*
X131661819Y-43903809D01*
X131661819Y-43903809D02*
X131709438Y-43789523D01*
X131709438Y-43789523D02*
X131804676Y-43713333D01*
X131804676Y-43713333D02*
X131899914Y-43675238D01*
X131899914Y-43675238D02*
X132090390Y-43637142D01*
X132090390Y-43637142D02*
X132233247Y-43637142D01*
X132233247Y-43637142D02*
X132423723Y-43675238D01*
X132423723Y-43675238D02*
X132518961Y-43713333D01*
X132518961Y-43713333D02*
X132614200Y-43789523D01*
X132614200Y-43789523D02*
X132661819Y-43903809D01*
X132661819Y-43903809D02*
X132661819Y-44094285D01*
X131661819Y-43408571D02*
X131661819Y-42951428D01*
X132661819Y-43180000D02*
X131661819Y-43180000D01*
X132661819Y-42227618D02*
X132185628Y-42494285D01*
X132661819Y-42684761D02*
X131661819Y-42684761D01*
X131661819Y-42684761D02*
X131661819Y-42379999D01*
X131661819Y-42379999D02*
X131709438Y-42303809D01*
X131709438Y-42303809D02*
X131757057Y-42265714D01*
X131757057Y-42265714D02*
X131852295Y-42227618D01*
X131852295Y-42227618D02*
X131995152Y-42227618D01*
X131995152Y-42227618D02*
X132090390Y-42265714D01*
X132090390Y-42265714D02*
X132138009Y-42303809D01*
X132138009Y-42303809D02*
X132185628Y-42379999D01*
X132185628Y-42379999D02*
X132185628Y-42684761D01*
%TO.C,U11*%
X125126905Y-59779819D02*
X125126905Y-60589342D01*
X125126905Y-60589342D02*
X125174524Y-60684580D01*
X125174524Y-60684580D02*
X125222143Y-60732200D01*
X125222143Y-60732200D02*
X125317381Y-60779819D01*
X125317381Y-60779819D02*
X125507857Y-60779819D01*
X125507857Y-60779819D02*
X125603095Y-60732200D01*
X125603095Y-60732200D02*
X125650714Y-60684580D01*
X125650714Y-60684580D02*
X125698333Y-60589342D01*
X125698333Y-60589342D02*
X125698333Y-59779819D01*
X126698333Y-60779819D02*
X126126905Y-60779819D01*
X126412619Y-60779819D02*
X126412619Y-59779819D01*
X126412619Y-59779819D02*
X126317381Y-59922676D01*
X126317381Y-59922676D02*
X126222143Y-60017914D01*
X126222143Y-60017914D02*
X126126905Y-60065533D01*
X127650714Y-60779819D02*
X127079286Y-60779819D01*
X127365000Y-60779819D02*
X127365000Y-59779819D01*
X127365000Y-59779819D02*
X127269762Y-59922676D01*
X127269762Y-59922676D02*
X127174524Y-60017914D01*
X127174524Y-60017914D02*
X127079286Y-60065533D01*
%TO.C,U9*%
X128143095Y-47714819D02*
X128143095Y-48524342D01*
X128143095Y-48524342D02*
X128190714Y-48619580D01*
X128190714Y-48619580D02*
X128238333Y-48667200D01*
X128238333Y-48667200D02*
X128333571Y-48714819D01*
X128333571Y-48714819D02*
X128524047Y-48714819D01*
X128524047Y-48714819D02*
X128619285Y-48667200D01*
X128619285Y-48667200D02*
X128666904Y-48619580D01*
X128666904Y-48619580D02*
X128714523Y-48524342D01*
X128714523Y-48524342D02*
X128714523Y-47714819D01*
X129238333Y-48714819D02*
X129428809Y-48714819D01*
X129428809Y-48714819D02*
X129524047Y-48667200D01*
X129524047Y-48667200D02*
X129571666Y-48619580D01*
X129571666Y-48619580D02*
X129666904Y-48476723D01*
X129666904Y-48476723D02*
X129714523Y-48286247D01*
X129714523Y-48286247D02*
X129714523Y-47905295D01*
X129714523Y-47905295D02*
X129666904Y-47810057D01*
X129666904Y-47810057D02*
X129619285Y-47762438D01*
X129619285Y-47762438D02*
X129524047Y-47714819D01*
X129524047Y-47714819D02*
X129333571Y-47714819D01*
X129333571Y-47714819D02*
X129238333Y-47762438D01*
X129238333Y-47762438D02*
X129190714Y-47810057D01*
X129190714Y-47810057D02*
X129143095Y-47905295D01*
X129143095Y-47905295D02*
X129143095Y-48143390D01*
X129143095Y-48143390D02*
X129190714Y-48238628D01*
X129190714Y-48238628D02*
X129238333Y-48286247D01*
X129238333Y-48286247D02*
X129333571Y-48333866D01*
X129333571Y-48333866D02*
X129524047Y-48333866D01*
X129524047Y-48333866D02*
X129619285Y-48286247D01*
X129619285Y-48286247D02*
X129666904Y-48238628D01*
X129666904Y-48238628D02*
X129714523Y-48143390D01*
%TO.C,C12*%
X130534580Y-60332857D02*
X130582200Y-60380476D01*
X130582200Y-60380476D02*
X130629819Y-60523333D01*
X130629819Y-60523333D02*
X130629819Y-60618571D01*
X130629819Y-60618571D02*
X130582200Y-60761428D01*
X130582200Y-60761428D02*
X130486961Y-60856666D01*
X130486961Y-60856666D02*
X130391723Y-60904285D01*
X130391723Y-60904285D02*
X130201247Y-60951904D01*
X130201247Y-60951904D02*
X130058390Y-60951904D01*
X130058390Y-60951904D02*
X129867914Y-60904285D01*
X129867914Y-60904285D02*
X129772676Y-60856666D01*
X129772676Y-60856666D02*
X129677438Y-60761428D01*
X129677438Y-60761428D02*
X129629819Y-60618571D01*
X129629819Y-60618571D02*
X129629819Y-60523333D01*
X129629819Y-60523333D02*
X129677438Y-60380476D01*
X129677438Y-60380476D02*
X129725057Y-60332857D01*
X130629819Y-59380476D02*
X130629819Y-59951904D01*
X130629819Y-59666190D02*
X129629819Y-59666190D01*
X129629819Y-59666190D02*
X129772676Y-59761428D01*
X129772676Y-59761428D02*
X129867914Y-59856666D01*
X129867914Y-59856666D02*
X129915533Y-59951904D01*
X129725057Y-58999523D02*
X129677438Y-58951904D01*
X129677438Y-58951904D02*
X129629819Y-58856666D01*
X129629819Y-58856666D02*
X129629819Y-58618571D01*
X129629819Y-58618571D02*
X129677438Y-58523333D01*
X129677438Y-58523333D02*
X129725057Y-58475714D01*
X129725057Y-58475714D02*
X129820295Y-58428095D01*
X129820295Y-58428095D02*
X129915533Y-58428095D01*
X129915533Y-58428095D02*
X130058390Y-58475714D01*
X130058390Y-58475714D02*
X130629819Y-59047142D01*
X130629819Y-59047142D02*
X130629819Y-58428095D01*
%TO.C,C14*%
X121517580Y-60586857D02*
X121565200Y-60634476D01*
X121565200Y-60634476D02*
X121612819Y-60777333D01*
X121612819Y-60777333D02*
X121612819Y-60872571D01*
X121612819Y-60872571D02*
X121565200Y-61015428D01*
X121565200Y-61015428D02*
X121469961Y-61110666D01*
X121469961Y-61110666D02*
X121374723Y-61158285D01*
X121374723Y-61158285D02*
X121184247Y-61205904D01*
X121184247Y-61205904D02*
X121041390Y-61205904D01*
X121041390Y-61205904D02*
X120850914Y-61158285D01*
X120850914Y-61158285D02*
X120755676Y-61110666D01*
X120755676Y-61110666D02*
X120660438Y-61015428D01*
X120660438Y-61015428D02*
X120612819Y-60872571D01*
X120612819Y-60872571D02*
X120612819Y-60777333D01*
X120612819Y-60777333D02*
X120660438Y-60634476D01*
X120660438Y-60634476D02*
X120708057Y-60586857D01*
X121612819Y-59634476D02*
X121612819Y-60205904D01*
X121612819Y-59920190D02*
X120612819Y-59920190D01*
X120612819Y-59920190D02*
X120755676Y-60015428D01*
X120755676Y-60015428D02*
X120850914Y-60110666D01*
X120850914Y-60110666D02*
X120898533Y-60205904D01*
X120946152Y-58777333D02*
X121612819Y-58777333D01*
X120565200Y-59015428D02*
X121279485Y-59253523D01*
X121279485Y-59253523D02*
X121279485Y-58634476D01*
%TO.C,R4*%
X122388333Y-53074819D02*
X122055000Y-52598628D01*
X121816905Y-53074819D02*
X121816905Y-52074819D01*
X121816905Y-52074819D02*
X122197857Y-52074819D01*
X122197857Y-52074819D02*
X122293095Y-52122438D01*
X122293095Y-52122438D02*
X122340714Y-52170057D01*
X122340714Y-52170057D02*
X122388333Y-52265295D01*
X122388333Y-52265295D02*
X122388333Y-52408152D01*
X122388333Y-52408152D02*
X122340714Y-52503390D01*
X122340714Y-52503390D02*
X122293095Y-52551009D01*
X122293095Y-52551009D02*
X122197857Y-52598628D01*
X122197857Y-52598628D02*
X121816905Y-52598628D01*
X123245476Y-52408152D02*
X123245476Y-53074819D01*
X123007381Y-52027200D02*
X122769286Y-52741485D01*
X122769286Y-52741485D02*
X123388333Y-52741485D01*
%TO.C,R2*%
X117294819Y-42711666D02*
X116818628Y-43044999D01*
X117294819Y-43283094D02*
X116294819Y-43283094D01*
X116294819Y-43283094D02*
X116294819Y-42902142D01*
X116294819Y-42902142D02*
X116342438Y-42806904D01*
X116342438Y-42806904D02*
X116390057Y-42759285D01*
X116390057Y-42759285D02*
X116485295Y-42711666D01*
X116485295Y-42711666D02*
X116628152Y-42711666D01*
X116628152Y-42711666D02*
X116723390Y-42759285D01*
X116723390Y-42759285D02*
X116771009Y-42806904D01*
X116771009Y-42806904D02*
X116818628Y-42902142D01*
X116818628Y-42902142D02*
X116818628Y-43283094D01*
X116390057Y-42330713D02*
X116342438Y-42283094D01*
X116342438Y-42283094D02*
X116294819Y-42187856D01*
X116294819Y-42187856D02*
X116294819Y-41949761D01*
X116294819Y-41949761D02*
X116342438Y-41854523D01*
X116342438Y-41854523D02*
X116390057Y-41806904D01*
X116390057Y-41806904D02*
X116485295Y-41759285D01*
X116485295Y-41759285D02*
X116580533Y-41759285D01*
X116580533Y-41759285D02*
X116723390Y-41806904D01*
X116723390Y-41806904D02*
X117294819Y-42378332D01*
X117294819Y-42378332D02*
X117294819Y-41759285D01*
%TO.C,U2*%
X63037819Y-45099904D02*
X63847342Y-45099904D01*
X63847342Y-45099904D02*
X63942580Y-45052285D01*
X63942580Y-45052285D02*
X63990200Y-45004666D01*
X63990200Y-45004666D02*
X64037819Y-44909428D01*
X64037819Y-44909428D02*
X64037819Y-44718952D01*
X64037819Y-44718952D02*
X63990200Y-44623714D01*
X63990200Y-44623714D02*
X63942580Y-44576095D01*
X63942580Y-44576095D02*
X63847342Y-44528476D01*
X63847342Y-44528476D02*
X63037819Y-44528476D01*
X63133057Y-44099904D02*
X63085438Y-44052285D01*
X63085438Y-44052285D02*
X63037819Y-43957047D01*
X63037819Y-43957047D02*
X63037819Y-43718952D01*
X63037819Y-43718952D02*
X63085438Y-43623714D01*
X63085438Y-43623714D02*
X63133057Y-43576095D01*
X63133057Y-43576095D02*
X63228295Y-43528476D01*
X63228295Y-43528476D02*
X63323533Y-43528476D01*
X63323533Y-43528476D02*
X63466390Y-43576095D01*
X63466390Y-43576095D02*
X64037819Y-44147523D01*
X64037819Y-44147523D02*
X64037819Y-43528476D01*
%TO.C,U5*%
X80645095Y-49829819D02*
X80645095Y-50639342D01*
X80645095Y-50639342D02*
X80692714Y-50734580D01*
X80692714Y-50734580D02*
X80740333Y-50782200D01*
X80740333Y-50782200D02*
X80835571Y-50829819D01*
X80835571Y-50829819D02*
X81026047Y-50829819D01*
X81026047Y-50829819D02*
X81121285Y-50782200D01*
X81121285Y-50782200D02*
X81168904Y-50734580D01*
X81168904Y-50734580D02*
X81216523Y-50639342D01*
X81216523Y-50639342D02*
X81216523Y-49829819D01*
X82168904Y-49829819D02*
X81692714Y-49829819D01*
X81692714Y-49829819D02*
X81645095Y-50306009D01*
X81645095Y-50306009D02*
X81692714Y-50258390D01*
X81692714Y-50258390D02*
X81787952Y-50210771D01*
X81787952Y-50210771D02*
X82026047Y-50210771D01*
X82026047Y-50210771D02*
X82121285Y-50258390D01*
X82121285Y-50258390D02*
X82168904Y-50306009D01*
X82168904Y-50306009D02*
X82216523Y-50401247D01*
X82216523Y-50401247D02*
X82216523Y-50639342D01*
X82216523Y-50639342D02*
X82168904Y-50734580D01*
X82168904Y-50734580D02*
X82121285Y-50782200D01*
X82121285Y-50782200D02*
X82026047Y-50829819D01*
X82026047Y-50829819D02*
X81787952Y-50829819D01*
X81787952Y-50829819D02*
X81692714Y-50782200D01*
X81692714Y-50782200D02*
X81645095Y-50734580D01*
%TO.C,R1*%
X123644819Y-42711666D02*
X123168628Y-43044999D01*
X123644819Y-43283094D02*
X122644819Y-43283094D01*
X122644819Y-43283094D02*
X122644819Y-42902142D01*
X122644819Y-42902142D02*
X122692438Y-42806904D01*
X122692438Y-42806904D02*
X122740057Y-42759285D01*
X122740057Y-42759285D02*
X122835295Y-42711666D01*
X122835295Y-42711666D02*
X122978152Y-42711666D01*
X122978152Y-42711666D02*
X123073390Y-42759285D01*
X123073390Y-42759285D02*
X123121009Y-42806904D01*
X123121009Y-42806904D02*
X123168628Y-42902142D01*
X123168628Y-42902142D02*
X123168628Y-43283094D01*
X123644819Y-41759285D02*
X123644819Y-42330713D01*
X123644819Y-42044999D02*
X122644819Y-42044999D01*
X122644819Y-42044999D02*
X122787676Y-42140237D01*
X122787676Y-42140237D02*
X122882914Y-42235475D01*
X122882914Y-42235475D02*
X122930533Y-42330713D01*
%TO.C,U7*%
X104013095Y-49829819D02*
X104013095Y-50639342D01*
X104013095Y-50639342D02*
X104060714Y-50734580D01*
X104060714Y-50734580D02*
X104108333Y-50782200D01*
X104108333Y-50782200D02*
X104203571Y-50829819D01*
X104203571Y-50829819D02*
X104394047Y-50829819D01*
X104394047Y-50829819D02*
X104489285Y-50782200D01*
X104489285Y-50782200D02*
X104536904Y-50734580D01*
X104536904Y-50734580D02*
X104584523Y-50639342D01*
X104584523Y-50639342D02*
X104584523Y-49829819D01*
X104965476Y-49829819D02*
X105632142Y-49829819D01*
X105632142Y-49829819D02*
X105203571Y-50829819D01*
%TO.C,C7*%
X122388333Y-54969580D02*
X122340714Y-55017200D01*
X122340714Y-55017200D02*
X122197857Y-55064819D01*
X122197857Y-55064819D02*
X122102619Y-55064819D01*
X122102619Y-55064819D02*
X121959762Y-55017200D01*
X121959762Y-55017200D02*
X121864524Y-54921961D01*
X121864524Y-54921961D02*
X121816905Y-54826723D01*
X121816905Y-54826723D02*
X121769286Y-54636247D01*
X121769286Y-54636247D02*
X121769286Y-54493390D01*
X121769286Y-54493390D02*
X121816905Y-54302914D01*
X121816905Y-54302914D02*
X121864524Y-54207676D01*
X121864524Y-54207676D02*
X121959762Y-54112438D01*
X121959762Y-54112438D02*
X122102619Y-54064819D01*
X122102619Y-54064819D02*
X122197857Y-54064819D01*
X122197857Y-54064819D02*
X122340714Y-54112438D01*
X122340714Y-54112438D02*
X122388333Y-54160057D01*
X122721667Y-54064819D02*
X123388333Y-54064819D01*
X123388333Y-54064819D02*
X122959762Y-55064819D01*
%TO.C,C13*%
X126724580Y-43187857D02*
X126772200Y-43235476D01*
X126772200Y-43235476D02*
X126819819Y-43378333D01*
X126819819Y-43378333D02*
X126819819Y-43473571D01*
X126819819Y-43473571D02*
X126772200Y-43616428D01*
X126772200Y-43616428D02*
X126676961Y-43711666D01*
X126676961Y-43711666D02*
X126581723Y-43759285D01*
X126581723Y-43759285D02*
X126391247Y-43806904D01*
X126391247Y-43806904D02*
X126248390Y-43806904D01*
X126248390Y-43806904D02*
X126057914Y-43759285D01*
X126057914Y-43759285D02*
X125962676Y-43711666D01*
X125962676Y-43711666D02*
X125867438Y-43616428D01*
X125867438Y-43616428D02*
X125819819Y-43473571D01*
X125819819Y-43473571D02*
X125819819Y-43378333D01*
X125819819Y-43378333D02*
X125867438Y-43235476D01*
X125867438Y-43235476D02*
X125915057Y-43187857D01*
X126819819Y-42235476D02*
X126819819Y-42806904D01*
X126819819Y-42521190D02*
X125819819Y-42521190D01*
X125819819Y-42521190D02*
X125962676Y-42616428D01*
X125962676Y-42616428D02*
X126057914Y-42711666D01*
X126057914Y-42711666D02*
X126105533Y-42806904D01*
X125819819Y-41902142D02*
X125819819Y-41283095D01*
X125819819Y-41283095D02*
X126200771Y-41616428D01*
X126200771Y-41616428D02*
X126200771Y-41473571D01*
X126200771Y-41473571D02*
X126248390Y-41378333D01*
X126248390Y-41378333D02*
X126296009Y-41330714D01*
X126296009Y-41330714D02*
X126391247Y-41283095D01*
X126391247Y-41283095D02*
X126629342Y-41283095D01*
X126629342Y-41283095D02*
X126724580Y-41330714D01*
X126724580Y-41330714D02*
X126772200Y-41378333D01*
X126772200Y-41378333D02*
X126819819Y-41473571D01*
X126819819Y-41473571D02*
X126819819Y-41759285D01*
X126819819Y-41759285D02*
X126772200Y-41854523D01*
X126772200Y-41854523D02*
X126724580Y-41902142D01*
%TO.C,U4*%
X68707095Y-49829819D02*
X68707095Y-50639342D01*
X68707095Y-50639342D02*
X68754714Y-50734580D01*
X68754714Y-50734580D02*
X68802333Y-50782200D01*
X68802333Y-50782200D02*
X68897571Y-50829819D01*
X68897571Y-50829819D02*
X69088047Y-50829819D01*
X69088047Y-50829819D02*
X69183285Y-50782200D01*
X69183285Y-50782200D02*
X69230904Y-50734580D01*
X69230904Y-50734580D02*
X69278523Y-50639342D01*
X69278523Y-50639342D02*
X69278523Y-49829819D01*
X70183285Y-50163152D02*
X70183285Y-50829819D01*
X69945190Y-49782200D02*
X69707095Y-50496485D01*
X69707095Y-50496485D02*
X70326142Y-50496485D01*
%TO.C,R3*%
X120469819Y-42711666D02*
X119993628Y-43044999D01*
X120469819Y-43283094D02*
X119469819Y-43283094D01*
X119469819Y-43283094D02*
X119469819Y-42902142D01*
X119469819Y-42902142D02*
X119517438Y-42806904D01*
X119517438Y-42806904D02*
X119565057Y-42759285D01*
X119565057Y-42759285D02*
X119660295Y-42711666D01*
X119660295Y-42711666D02*
X119803152Y-42711666D01*
X119803152Y-42711666D02*
X119898390Y-42759285D01*
X119898390Y-42759285D02*
X119946009Y-42806904D01*
X119946009Y-42806904D02*
X119993628Y-42902142D01*
X119993628Y-42902142D02*
X119993628Y-43283094D01*
X119469819Y-42378332D02*
X119469819Y-41759285D01*
X119469819Y-41759285D02*
X119850771Y-42092618D01*
X119850771Y-42092618D02*
X119850771Y-41949761D01*
X119850771Y-41949761D02*
X119898390Y-41854523D01*
X119898390Y-41854523D02*
X119946009Y-41806904D01*
X119946009Y-41806904D02*
X120041247Y-41759285D01*
X120041247Y-41759285D02*
X120279342Y-41759285D01*
X120279342Y-41759285D02*
X120374580Y-41806904D01*
X120374580Y-41806904D02*
X120422200Y-41854523D01*
X120422200Y-41854523D02*
X120469819Y-41949761D01*
X120469819Y-41949761D02*
X120469819Y-42235475D01*
X120469819Y-42235475D02*
X120422200Y-42330713D01*
X120422200Y-42330713D02*
X120374580Y-42378332D01*
%TO.C,U6*%
X92329095Y-49829819D02*
X92329095Y-50639342D01*
X92329095Y-50639342D02*
X92376714Y-50734580D01*
X92376714Y-50734580D02*
X92424333Y-50782200D01*
X92424333Y-50782200D02*
X92519571Y-50829819D01*
X92519571Y-50829819D02*
X92710047Y-50829819D01*
X92710047Y-50829819D02*
X92805285Y-50782200D01*
X92805285Y-50782200D02*
X92852904Y-50734580D01*
X92852904Y-50734580D02*
X92900523Y-50639342D01*
X92900523Y-50639342D02*
X92900523Y-49829819D01*
X93805285Y-49829819D02*
X93614809Y-49829819D01*
X93614809Y-49829819D02*
X93519571Y-49877438D01*
X93519571Y-49877438D02*
X93471952Y-49925057D01*
X93471952Y-49925057D02*
X93376714Y-50067914D01*
X93376714Y-50067914D02*
X93329095Y-50258390D01*
X93329095Y-50258390D02*
X93329095Y-50639342D01*
X93329095Y-50639342D02*
X93376714Y-50734580D01*
X93376714Y-50734580D02*
X93424333Y-50782200D01*
X93424333Y-50782200D02*
X93519571Y-50829819D01*
X93519571Y-50829819D02*
X93710047Y-50829819D01*
X93710047Y-50829819D02*
X93805285Y-50782200D01*
X93805285Y-50782200D02*
X93852904Y-50734580D01*
X93852904Y-50734580D02*
X93900523Y-50639342D01*
X93900523Y-50639342D02*
X93900523Y-50401247D01*
X93900523Y-50401247D02*
X93852904Y-50306009D01*
X93852904Y-50306009D02*
X93805285Y-50258390D01*
X93805285Y-50258390D02*
X93710047Y-50210771D01*
X93710047Y-50210771D02*
X93519571Y-50210771D01*
X93519571Y-50210771D02*
X93424333Y-50258390D01*
X93424333Y-50258390D02*
X93376714Y-50306009D01*
X93376714Y-50306009D02*
X93329095Y-50401247D01*
%TO.C,U3*%
X83103819Y-45084904D02*
X83913342Y-45084904D01*
X83913342Y-45084904D02*
X84008580Y-45037285D01*
X84008580Y-45037285D02*
X84056200Y-44989666D01*
X84056200Y-44989666D02*
X84103819Y-44894428D01*
X84103819Y-44894428D02*
X84103819Y-44703952D01*
X84103819Y-44703952D02*
X84056200Y-44608714D01*
X84056200Y-44608714D02*
X84008580Y-44561095D01*
X84008580Y-44561095D02*
X83913342Y-44513476D01*
X83913342Y-44513476D02*
X83103819Y-44513476D01*
X83103819Y-44132523D02*
X83103819Y-43513476D01*
X83103819Y-43513476D02*
X83484771Y-43846809D01*
X83484771Y-43846809D02*
X83484771Y-43703952D01*
X83484771Y-43703952D02*
X83532390Y-43608714D01*
X83532390Y-43608714D02*
X83580009Y-43561095D01*
X83580009Y-43561095D02*
X83675247Y-43513476D01*
X83675247Y-43513476D02*
X83913342Y-43513476D01*
X83913342Y-43513476D02*
X84008580Y-43561095D01*
X84008580Y-43561095D02*
X84056200Y-43608714D01*
X84056200Y-43608714D02*
X84103819Y-43703952D01*
X84103819Y-43703952D02*
X84103819Y-43989666D01*
X84103819Y-43989666D02*
X84056200Y-44084904D01*
X84056200Y-44084904D02*
X84008580Y-44132523D01*
D12*
%TO.C,L1*%
X122648000Y-62137000D02*
X122648000Y-65337000D01*
X122648000Y-72737000D02*
X112048000Y-72737000D01*
X112048000Y-72737000D02*
X112048000Y-69537000D01*
X112048000Y-62137000D02*
X122648000Y-62137000D01*
X122648000Y-69537000D02*
X122648000Y-72737000D01*
X112048000Y-65337000D02*
X112048000Y-62137000D01*
%TO.C,U11*%
X127820000Y-55860000D02*
X125370000Y-55860000D01*
X126020000Y-59080000D02*
X127820000Y-59080000D01*
%TO.C,U9*%
X128268000Y-49408000D02*
X125108000Y-49408000D01*
X128268000Y-52568000D02*
X126808000Y-52568000D01*
X128268000Y-52568000D02*
X128268000Y-51638000D01*
X128268000Y-49408000D02*
X128268000Y-50338000D01*
%TO.C,C12*%
X129580000Y-55978752D02*
X129580000Y-54556248D01*
X131400000Y-55978752D02*
X131400000Y-54556248D01*
%TO.C,NX4*%
X131074077Y-82323077D02*
G75*
G03*
X131074077Y-82323077I-9000000J0D01*
G01*
%TO.C,NX3*%
X112616743Y-82323077D02*
G75*
G03*
X112616743Y-82323077I-9000000J0D01*
G01*
%TO.C,C14*%
X117092077Y-52880077D02*
X119709077Y-52880077D01*
X117092077Y-53400077D02*
X120098077Y-53400077D01*
X117092077Y-53880077D02*
X120376077Y-53880077D01*
X112373077Y-52480077D02*
X114610077Y-52480077D01*
X112027077Y-52840077D02*
X114610077Y-52840077D01*
X110778077Y-55921077D02*
X120924077Y-55921077D01*
X114621077Y-51240077D02*
X117081077Y-51240077D01*
X114005077Y-51440077D02*
X117697077Y-51440077D01*
X111001077Y-54680077D02*
X114610077Y-54680077D01*
X110783077Y-55841077D02*
X120919077Y-55841077D01*
X111480077Y-53600077D02*
X114610077Y-53600077D01*
X110772077Y-56081077D02*
X120930077Y-56081077D01*
X117092077Y-52760077D02*
X119604077Y-52760077D01*
X110793077Y-55721077D02*
X120909077Y-55721077D01*
X117092077Y-53960077D02*
X120415077Y-53960077D01*
X110816077Y-55521077D02*
X120886077Y-55521077D01*
X111194077Y-54160077D02*
X114610077Y-54160077D01*
X110989077Y-54720077D02*
X114610077Y-54720077D01*
X110789077Y-55761077D02*
X120913077Y-55761077D01*
X112645077Y-52240077D02*
X119057077Y-52240077D01*
X114109077Y-51400077D02*
X117593077Y-51400077D01*
X111389077Y-53760077D02*
X114610077Y-53760077D01*
X110774077Y-56001077D02*
X120928077Y-56001077D01*
X112172077Y-52680077D02*
X114610077Y-52680077D01*
X112062077Y-52800077D02*
X114610077Y-52800077D01*
X110771077Y-56201077D02*
X120931077Y-56201077D01*
X111456077Y-53640077D02*
X114610077Y-53640077D01*
X114989077Y-51160077D02*
X116713077Y-51160077D01*
X117092077Y-52520077D02*
X119371077Y-52520077D01*
X117092077Y-54400077D02*
X120605077Y-54400077D01*
X117092077Y-54040077D02*
X120454077Y-54040077D01*
X110833077Y-55400077D02*
X120869077Y-55400077D01*
X111528077Y-53520077D02*
X114610077Y-53520077D01*
X110840077Y-55360077D02*
X120862077Y-55360077D01*
X117092077Y-52720077D02*
X119567077Y-52720077D01*
X111230077Y-54080077D02*
X114610077Y-54080077D01*
X110861077Y-55240077D02*
X120841077Y-55240077D01*
X111326077Y-53880077D02*
X114610077Y-53880077D01*
X110827077Y-55440077D02*
X120875077Y-55440077D01*
X117092077Y-53640077D02*
X120246077Y-53640077D01*
X111014077Y-54640077D02*
X114610077Y-54640077D01*
X111894077Y-53000077D02*
X114610077Y-53000077D01*
X117092077Y-54640077D02*
X120688077Y-54640077D01*
X112962077Y-52000077D02*
X118740077Y-52000077D01*
X111578077Y-53440077D02*
X114610077Y-53440077D01*
X117092077Y-53440077D02*
X120124077Y-53440077D01*
X117092077Y-53760077D02*
X120313077Y-53760077D01*
X117092077Y-54800077D02*
X120736077Y-54800077D01*
X117092077Y-53560077D02*
X120198077Y-53560077D01*
X110895077Y-55080077D02*
X120807077Y-55080077D01*
X117092077Y-54200077D02*
X120525077Y-54200077D01*
X112976077Y-61680723D02*
X112976077Y-60680723D01*
X110847077Y-55320077D02*
X120855077Y-55320077D01*
X117092077Y-54880077D02*
X120758077Y-54880077D01*
X117092077Y-54360077D02*
X120589077Y-54360077D01*
X117092077Y-53160077D02*
X119931077Y-53160077D01*
X117092077Y-53120077D02*
X119901077Y-53120077D01*
X117092077Y-54280077D02*
X120558077Y-54280077D01*
X111212077Y-54120077D02*
X114610077Y-54120077D01*
X111027077Y-54600077D02*
X114610077Y-54600077D01*
X110923077Y-54960077D02*
X120779077Y-54960077D01*
X113562077Y-51640077D02*
X118140077Y-51640077D01*
X111177077Y-54200077D02*
X114610077Y-54200077D01*
X117092077Y-53840077D02*
X120355077Y-53840077D01*
X113726077Y-51560077D02*
X117976077Y-51560077D01*
X111831077Y-53080077D02*
X114610077Y-53080077D01*
X111685077Y-53280077D02*
X114610077Y-53280077D01*
X111741077Y-53200077D02*
X114610077Y-53200077D01*
X110821077Y-55480077D02*
X120881077Y-55480077D01*
X113272077Y-51800077D02*
X118430077Y-51800077D01*
X110776077Y-55961077D02*
X120926077Y-55961077D01*
X110801077Y-55641077D02*
X120901077Y-55641077D01*
X117092077Y-52800077D02*
X119640077Y-52800077D01*
X110854077Y-55280077D02*
X120848077Y-55280077D01*
X111248077Y-54040077D02*
X114610077Y-54040077D01*
X111630077Y-53360077D02*
X114610077Y-53360077D01*
X117092077Y-53520077D02*
X120174077Y-53520077D01*
X117092077Y-54760077D02*
X120725077Y-54760077D01*
X110771077Y-56121077D02*
X120931077Y-56121077D01*
X111068077Y-54480077D02*
X114610077Y-54480077D01*
X117092077Y-52560077D02*
X119412077Y-52560077D01*
X114221077Y-51360077D02*
X117481077Y-51360077D01*
X111959077Y-52920077D02*
X114610077Y-52920077D01*
X117092077Y-53360077D02*
X120072077Y-53360077D01*
X110781077Y-55881077D02*
X120921077Y-55881077D01*
X117092077Y-52960077D02*
X119776077Y-52960077D01*
X112745077Y-52160077D02*
X118957077Y-52160077D01*
X117092077Y-52600077D02*
X119452077Y-52600077D01*
X117092077Y-54920077D02*
X120769077Y-54920077D01*
X110806077Y-55601077D02*
X120896077Y-55601077D01*
X112597077Y-52280077D02*
X119105077Y-52280077D01*
X111434077Y-53680077D02*
X114610077Y-53680077D01*
X117092077Y-54320077D02*
X120574077Y-54320077D01*
X117092077Y-54080077D02*
X120472077Y-54080077D01*
X112331077Y-52520077D02*
X114610077Y-52520077D01*
X112851077Y-52080077D02*
X118851077Y-52080077D01*
X117092077Y-52920077D02*
X119743077Y-52920077D01*
X111144077Y-54280077D02*
X114610077Y-54280077D01*
X111097077Y-54400077D02*
X114610077Y-54400077D01*
X117092077Y-53040077D02*
X119840077Y-53040077D01*
X111267077Y-54000077D02*
X114610077Y-54000077D01*
X117092077Y-53720077D02*
X120291077Y-53720077D01*
X113412077Y-51720077D02*
X118290077Y-51720077D01*
X113341077Y-51760077D02*
X118361077Y-51760077D01*
X112211077Y-52640077D02*
X114610077Y-52640077D01*
X110913077Y-55000077D02*
X120789077Y-55000077D01*
X113486077Y-51680077D02*
X118216077Y-51680077D01*
X111553077Y-53480077D02*
X114610077Y-53480077D01*
X111657077Y-53320077D02*
X114610077Y-53320077D01*
X117092077Y-54840077D02*
X120748077Y-54840077D01*
X117092077Y-54600077D02*
X120675077Y-54600077D01*
X110904077Y-55040077D02*
X120798077Y-55040077D01*
X111368077Y-53800077D02*
X114610077Y-53800077D01*
X110954077Y-54840077D02*
X114610077Y-54840077D01*
X117092077Y-54520077D02*
X120648077Y-54520077D01*
X111504077Y-53560077D02*
X114610077Y-53560077D01*
X112797077Y-52120077D02*
X118905077Y-52120077D01*
X117092077Y-52480077D02*
X119329077Y-52480077D01*
X114473077Y-51280077D02*
X117229077Y-51280077D01*
X113907077Y-51480077D02*
X117795077Y-51480077D01*
X115252077Y-51120077D02*
X116450077Y-51120077D01*
X110797077Y-55681077D02*
X120905077Y-55681077D01*
X111604077Y-53400077D02*
X114610077Y-53400077D01*
X113642077Y-51600077D02*
X118060077Y-51600077D01*
X112504077Y-52360077D02*
X119198077Y-52360077D01*
X111040077Y-54560077D02*
X114610077Y-54560077D01*
X110944077Y-54880077D02*
X114610077Y-54880077D01*
X117092077Y-54120077D02*
X120490077Y-54120077D01*
X110811077Y-55561077D02*
X120891077Y-55561077D01*
X112098077Y-52760077D02*
X114610077Y-52760077D01*
X110786077Y-55801077D02*
X120916077Y-55801077D01*
X114789077Y-51200077D02*
X116913077Y-51200077D01*
X110877077Y-55160077D02*
X120825077Y-55160077D01*
X117092077Y-54240077D02*
X120541077Y-54240077D01*
X117092077Y-53800077D02*
X120334077Y-53800077D01*
X111771077Y-53160077D02*
X114610077Y-53160077D01*
X111347077Y-53840077D02*
X114610077Y-53840077D01*
X111862077Y-53040077D02*
X114610077Y-53040077D01*
X112695077Y-52200077D02*
X119007077Y-52200077D01*
X113814077Y-51520077D02*
X117888077Y-51520077D01*
X117092077Y-54440077D02*
X120619077Y-54440077D01*
X117092077Y-54680077D02*
X120701077Y-54680077D01*
X111993077Y-52880077D02*
X114610077Y-52880077D01*
X112250077Y-52600077D02*
X114610077Y-52600077D01*
X117092077Y-53320077D02*
X120045077Y-53320077D01*
X117092077Y-52640077D02*
X119491077Y-52640077D01*
X111128077Y-54320077D02*
X114610077Y-54320077D01*
X112459077Y-52400077D02*
X119243077Y-52400077D01*
X111083077Y-54440077D02*
X114610077Y-54440077D01*
X112476077Y-61180723D02*
X113476077Y-61180723D01*
X113206077Y-51840077D02*
X118496077Y-51840077D01*
X117092077Y-53480077D02*
X120149077Y-53480077D01*
X117092077Y-54720077D02*
X120713077Y-54720077D01*
X110773077Y-56041077D02*
X120929077Y-56041077D01*
X111161077Y-54240077D02*
X114610077Y-54240077D01*
X111411077Y-53720077D02*
X114610077Y-53720077D01*
X112906077Y-52040077D02*
X118796077Y-52040077D01*
X110977077Y-54760077D02*
X114610077Y-54760077D01*
X110771077Y-56161077D02*
X120931077Y-56161077D01*
X111926077Y-52960077D02*
X114610077Y-52960077D01*
X117092077Y-53080077D02*
X119871077Y-53080077D01*
X117092077Y-52840077D02*
X119675077Y-52840077D01*
X112550077Y-52320077D02*
X119152077Y-52320077D01*
X110886077Y-55120077D02*
X120816077Y-55120077D01*
X111287077Y-53960077D02*
X114610077Y-53960077D01*
X117092077Y-54160077D02*
X120508077Y-54160077D01*
X110966077Y-54800077D02*
X114610077Y-54800077D01*
X117092077Y-53200077D02*
X119961077Y-53200077D01*
X111801077Y-53120077D02*
X114610077Y-53120077D01*
X110869077Y-55200077D02*
X120833077Y-55200077D01*
X111054077Y-54520077D02*
X114610077Y-54520077D01*
X112415077Y-52440077D02*
X119287077Y-52440077D01*
X110933077Y-54920077D02*
X114610077Y-54920077D01*
X117092077Y-53240077D02*
X119989077Y-53240077D01*
X111306077Y-53920077D02*
X114610077Y-53920077D01*
X117092077Y-54560077D02*
X120662077Y-54560077D01*
X112290077Y-52560077D02*
X114610077Y-52560077D01*
X117092077Y-53920077D02*
X120396077Y-53920077D01*
X117092077Y-53680077D02*
X120268077Y-53680077D01*
X117092077Y-53280077D02*
X120017077Y-53280077D01*
X111713077Y-53240077D02*
X114610077Y-53240077D01*
X117092077Y-54480077D02*
X120634077Y-54480077D01*
X111113077Y-54360077D02*
X114610077Y-54360077D01*
X117092077Y-53000077D02*
X119808077Y-53000077D01*
X112135077Y-52720077D02*
X114610077Y-52720077D01*
X117092077Y-53600077D02*
X120222077Y-53600077D01*
X113142077Y-51880077D02*
X118560077Y-51880077D01*
X113081077Y-51920077D02*
X118621077Y-51920077D01*
X114341077Y-51320077D02*
X117361077Y-51320077D01*
X117092077Y-52680077D02*
X119530077Y-52680077D01*
X117092077Y-54000077D02*
X120435077Y-54000077D01*
X113021077Y-51960077D02*
X118681077Y-51960077D01*
X120971077Y-56201077D02*
G75*
G03*
X120971077Y-56201077I-5120000J0D01*
G01*
%TO.C,R4*%
X123282064Y-51710000D02*
X121827936Y-51710000D01*
X123282064Y-49890000D02*
X121827936Y-49890000D01*
%TO.C,R2*%
X117750000Y-47463064D02*
X117750000Y-46008936D01*
X115930000Y-47463064D02*
X115930000Y-46008936D01*
%TO.C,U2*%
X82483000Y-46588000D02*
X82483000Y-42088000D01*
X64583000Y-46588000D02*
X82483000Y-46588000D01*
X64583000Y-42088000D02*
X64583000Y-43338000D01*
X64583000Y-45338000D02*
X64583000Y-46588000D01*
X82483000Y-42088000D02*
X64583000Y-42088000D01*
X64583000Y-45338000D02*
G75*
G03*
X64583000Y-43338000I0J1000000D01*
G01*
%TO.C,U5*%
X79157000Y-71815000D02*
X83657000Y-71815000D01*
X83657000Y-51375000D02*
X82407000Y-51375000D01*
X83657000Y-71815000D02*
X83657000Y-51375000D01*
X80407000Y-51375000D02*
X79157000Y-51375000D01*
X79157000Y-51375000D02*
X79157000Y-71815000D01*
X80407000Y-51375000D02*
G75*
G03*
X82407000Y-51375000I1000000J0D01*
G01*
%TO.C,U10*%
X134386000Y-67437000D02*
X134386000Y-65487000D01*
X129266000Y-67437000D02*
X129266000Y-65487000D01*
X129266000Y-67437000D02*
X129266000Y-70887000D01*
X134386000Y-67437000D02*
X134386000Y-69387000D01*
%TO.C,NX2*%
X94159410Y-82323077D02*
G75*
G03*
X94159410Y-82323077I-9000000J0D01*
G01*
%TO.C,RV1*%
X131916000Y-76149000D02*
X134816000Y-76149000D01*
X134816000Y-76149000D02*
X134816000Y-75549000D01*
X131016000Y-72749000D02*
X130316000Y-72749000D01*
X134816000Y-72949000D02*
X134816000Y-73549000D01*
X130316000Y-72749000D02*
X130316000Y-73449000D01*
X130816000Y-74349000D02*
X130816000Y-74749000D01*
X131916000Y-72949000D02*
X134816000Y-72949000D01*
%TO.C,R1*%
X122280000Y-47437064D02*
X122280000Y-45982936D01*
X124100000Y-47437064D02*
X124100000Y-45982936D01*
%TO.C,U7*%
X102525000Y-71815000D02*
X107025000Y-71815000D01*
X107025000Y-71815000D02*
X107025000Y-51375000D01*
X107025000Y-51375000D02*
X105775000Y-51375000D01*
X102525000Y-51375000D02*
X102525000Y-71815000D01*
X103775000Y-51375000D02*
X102525000Y-51375000D01*
X103775000Y-51375000D02*
G75*
G03*
X105775000Y-51375000I1000000J0D01*
G01*
%TO.C,NX1*%
X75702077Y-82323077D02*
G75*
G03*
X75702077Y-82323077I-9000000J0D01*
G01*
%TO.C,C7*%
X125968748Y-53087500D02*
X127391252Y-53087500D01*
X125968748Y-54907500D02*
X127391252Y-54907500D01*
%TO.C,C13*%
X125328000Y-47447252D02*
X125328000Y-46024748D01*
X127148000Y-47447252D02*
X127148000Y-46024748D01*
%TO.C,Q1*%
X125240000Y-72557000D02*
X125240000Y-62317000D01*
X123730000Y-72557000D02*
X123730000Y-62317000D01*
X123730000Y-72557000D02*
X128371000Y-72557000D01*
X128371000Y-72557000D02*
X128371000Y-62317000D01*
X123730000Y-65586000D02*
X125240000Y-65586000D01*
X123730000Y-69287000D02*
X125240000Y-69287000D01*
X123730000Y-62317000D02*
X128371000Y-62317000D01*
%TO.C,U4*%
X67219000Y-71815000D02*
X71719000Y-71815000D01*
X71719000Y-71815000D02*
X71719000Y-51375000D01*
X68469000Y-51375000D02*
X67219000Y-51375000D01*
X67219000Y-51375000D02*
X67219000Y-71815000D01*
X71719000Y-51375000D02*
X70469000Y-51375000D01*
X68469000Y-51375000D02*
G75*
G03*
X70469000Y-51375000I1000000J0D01*
G01*
%TO.C,R3*%
X120925000Y-47463064D02*
X120925000Y-46008936D01*
X119105000Y-47463064D02*
X119105000Y-46008936D01*
%TO.C,J2*%
X105255000Y-43699077D02*
X105255000Y-34899077D01*
X105255000Y-49599077D02*
X105255000Y-47699077D01*
X105255000Y-34899077D02*
X114455000Y-34899077D01*
X113605000Y-49799077D02*
X114655000Y-49799077D01*
X114655000Y-48749077D02*
X114655000Y-49799077D01*
X114455000Y-34899077D02*
X114455000Y-49599077D01*
X107955000Y-49599077D02*
X105255000Y-49599077D01*
X114455000Y-49599077D02*
X111855000Y-49599077D01*
%TO.C,U6*%
X92091000Y-51375000D02*
X90841000Y-51375000D01*
X90841000Y-71815000D02*
X95341000Y-71815000D01*
X95341000Y-71815000D02*
X95341000Y-51375000D01*
X90841000Y-51375000D02*
X90841000Y-71815000D01*
X95341000Y-51375000D02*
X94091000Y-51375000D01*
X92091000Y-51375000D02*
G75*
G03*
X94091000Y-51375000I1000000J0D01*
G01*
%TO.C,U3*%
X84649000Y-42073000D02*
X84649000Y-43323000D01*
X84649000Y-46573000D02*
X102549000Y-46573000D01*
X84649000Y-45323000D02*
X84649000Y-46573000D01*
X102549000Y-42073000D02*
X84649000Y-42073000D01*
X102549000Y-46573000D02*
X102549000Y-42073000D01*
X84649000Y-45323000D02*
G75*
G03*
X84649000Y-43323000I0J1000000D01*
G01*
%TD*%
%LPC*%
D13*
%TO.C,REF\u002A\u002A*%
X111598109Y-81118109D03*
X114461891Y-83981891D03*
X115055000Y-82550000D03*
X113030000Y-80525000D03*
X111005000Y-82550000D03*
X114461891Y-81118109D03*
X113030000Y-84575000D03*
D14*
X113030000Y-82550000D03*
D13*
X111598109Y-83981891D03*
%TD*%
%TO.C,REF\u002A\u002A*%
X74133109Y-83981891D03*
D14*
X75565000Y-82550000D03*
D13*
X75565000Y-84575000D03*
X76996891Y-81118109D03*
X73540000Y-82550000D03*
X75565000Y-80525000D03*
X77590000Y-82550000D03*
X76996891Y-83981891D03*
X74133109Y-81118109D03*
%TD*%
D15*
%TO.C,L1*%
X113198000Y-67437000D03*
X121498000Y-67437000D03*
%TD*%
D16*
%TO.C,U11*%
X125570000Y-56520000D03*
X125570000Y-57470000D03*
X125570000Y-58420000D03*
X128270000Y-58420000D03*
X128270000Y-56520000D03*
%TD*%
D17*
%TO.C,U9*%
X126008000Y-50038000D03*
X126008000Y-51938000D03*
X129008000Y-50988000D03*
%TD*%
D18*
%TO.C,C12*%
X130490000Y-56830000D03*
X130490000Y-53705000D03*
%TD*%
D19*
%TO.C,NX4*%
X118264077Y-84863077D03*
X125884077Y-84863077D03*
X118264077Y-79783077D03*
X125884077Y-79783077D03*
X125884077Y-82323077D03*
X118264077Y-82323077D03*
X120804077Y-84863077D03*
X120804077Y-87403077D03*
X120804077Y-79783077D03*
X120804077Y-77243077D03*
X123344077Y-77243077D03*
X123344077Y-79805773D03*
X123344077Y-82323077D03*
X123344077Y-84863077D03*
X123344077Y-87460432D03*
X120804077Y-82323077D03*
%TD*%
%TO.C,NX3*%
X99806743Y-84863077D03*
X107426743Y-84863077D03*
X99806743Y-79783077D03*
X107426743Y-79783077D03*
X107426743Y-82323077D03*
X99806743Y-82323077D03*
X102346743Y-84863077D03*
X102346743Y-87403077D03*
X102346743Y-79783077D03*
X102346743Y-77243077D03*
X104886743Y-77243077D03*
X104886743Y-79805773D03*
X104886743Y-82323077D03*
X104886743Y-84863077D03*
X104886743Y-87460432D03*
X102346743Y-82323077D03*
%TD*%
D20*
%TO.C,C14*%
X115851077Y-58701077D03*
D21*
X115851077Y-53701077D03*
%TD*%
D22*
%TO.C,R4*%
X124105000Y-50800000D03*
X121005000Y-50800000D03*
%TD*%
D23*
%TO.C,R2*%
X116840000Y-48286000D03*
X116840000Y-45186000D03*
%TD*%
D24*
%TO.C,U2*%
X65913000Y-48148000D03*
D25*
X68453000Y-48148000D03*
X70993000Y-48148000D03*
X73533000Y-48148000D03*
X76073000Y-48148000D03*
X78613000Y-48148000D03*
X81153000Y-48148000D03*
X81153000Y-40528000D03*
X78613000Y-40528000D03*
X76073000Y-40528000D03*
X73533000Y-40528000D03*
X70993000Y-40528000D03*
X68453000Y-40528000D03*
X65913000Y-40528000D03*
%TD*%
D26*
%TO.C,U5*%
X77597000Y-52705000D03*
D27*
X77597000Y-55245000D03*
X77597000Y-57785000D03*
X77597000Y-60325000D03*
X77597000Y-62865000D03*
X77597000Y-65405000D03*
X77597000Y-67945000D03*
X77597000Y-70485000D03*
X85217000Y-70485000D03*
X85217000Y-67945000D03*
X85217000Y-65405000D03*
X85217000Y-62865000D03*
X85217000Y-60325000D03*
X85217000Y-57785000D03*
X85217000Y-55245000D03*
X85217000Y-52705000D03*
%TD*%
D28*
%TO.C,U10*%
X129921000Y-70012000D03*
X131191000Y-70012000D03*
X132461000Y-70012000D03*
X133731000Y-70012000D03*
X133731000Y-64862000D03*
X132461000Y-64862000D03*
X131191000Y-64862000D03*
X129921000Y-64862000D03*
%TD*%
D19*
%TO.C,NX2*%
X88969410Y-84863077D03*
X81349410Y-84863077D03*
X81349410Y-79783077D03*
X88969410Y-79783077D03*
X88969410Y-82323077D03*
X81349410Y-82323077D03*
X83889410Y-84863077D03*
X83889410Y-87403077D03*
X83889410Y-79783077D03*
X83889410Y-77243077D03*
X86429410Y-77243077D03*
X86429410Y-79805773D03*
X86429410Y-82323077D03*
X86429410Y-84863077D03*
X86429410Y-87460432D03*
X83889410Y-82323077D03*
%TD*%
D29*
%TO.C,RV1*%
X131116000Y-73549000D03*
D30*
X134366000Y-74549000D03*
D29*
X131116000Y-75549000D03*
%TD*%
D23*
%TO.C,R1*%
X123190000Y-48260000D03*
X123190000Y-45160000D03*
%TD*%
D26*
%TO.C,U7*%
X100965000Y-52705000D03*
D27*
X100965000Y-55245000D03*
X100965000Y-57785000D03*
X100965000Y-60325000D03*
X100965000Y-62865000D03*
X100965000Y-65405000D03*
X100965000Y-67945000D03*
X100965000Y-70485000D03*
X108585000Y-70485000D03*
X108585000Y-67945000D03*
X108585000Y-65405000D03*
X108585000Y-62865000D03*
X108585000Y-60325000D03*
X108585000Y-57785000D03*
X108585000Y-55245000D03*
X108585000Y-52705000D03*
%TD*%
D19*
%TO.C,NX1*%
X65432077Y-82323077D03*
X67972077Y-87460432D03*
X67972077Y-84863077D03*
X67972077Y-82323077D03*
X67972077Y-79805773D03*
X67972077Y-77243077D03*
X65432077Y-77243077D03*
X65432077Y-79783077D03*
X65432077Y-87403077D03*
X65432077Y-84863077D03*
X62892077Y-82323077D03*
X70512077Y-82323077D03*
X70512077Y-79783077D03*
X62892077Y-79783077D03*
X62892077Y-84863077D03*
X70512077Y-84863077D03*
%TD*%
D31*
%TO.C,C7*%
X125117500Y-53997500D03*
X128242500Y-53997500D03*
%TD*%
D32*
%TO.C,J1*%
X133985000Y-58420000D03*
X133985000Y-55880000D03*
X133985000Y-53340000D03*
X133985000Y-50800000D03*
X133985000Y-48260000D03*
X133985000Y-45720000D03*
X133985000Y-43180000D03*
%TD*%
D18*
%TO.C,C13*%
X126238000Y-48298500D03*
X126238000Y-45173500D03*
%TD*%
D33*
%TO.C,Q1*%
X127000000Y-69977000D03*
D34*
X127000000Y-67437000D03*
X127000000Y-64897000D03*
%TD*%
D26*
%TO.C,U4*%
X65659000Y-52705000D03*
D27*
X65659000Y-55245000D03*
X65659000Y-57785000D03*
X65659000Y-60325000D03*
X65659000Y-62865000D03*
X65659000Y-65405000D03*
X65659000Y-67945000D03*
X65659000Y-70485000D03*
X73279000Y-70485000D03*
X73279000Y-67945000D03*
X73279000Y-65405000D03*
X73279000Y-62865000D03*
X73279000Y-60325000D03*
X73279000Y-57785000D03*
X73279000Y-55245000D03*
X73279000Y-52705000D03*
%TD*%
D23*
%TO.C,R3*%
X120015000Y-48286000D03*
X120015000Y-45186000D03*
%TD*%
D35*
%TO.C,J2*%
X109855000Y-48699077D03*
D36*
X109855000Y-42699077D03*
D37*
X105155000Y-45699077D03*
%TD*%
D26*
%TO.C,U6*%
X89281000Y-52705000D03*
D27*
X89281000Y-55245000D03*
X89281000Y-57785000D03*
X89281000Y-60325000D03*
X89281000Y-62865000D03*
X89281000Y-65405000D03*
X89281000Y-67945000D03*
X89281000Y-70485000D03*
X96901000Y-70485000D03*
X96901000Y-67945000D03*
X96901000Y-65405000D03*
X96901000Y-62865000D03*
X96901000Y-60325000D03*
X96901000Y-57785000D03*
X96901000Y-55245000D03*
X96901000Y-52705000D03*
%TD*%
D24*
%TO.C,U3*%
X85979000Y-48133000D03*
D25*
X88519000Y-48133000D03*
X91059000Y-48133000D03*
X93599000Y-48133000D03*
X96139000Y-48133000D03*
X98679000Y-48133000D03*
X101219000Y-48133000D03*
X101219000Y-40513000D03*
X98679000Y-40513000D03*
X96139000Y-40513000D03*
X93599000Y-40513000D03*
X91059000Y-40513000D03*
X88519000Y-40513000D03*
X85979000Y-40513000D03*
%TD*%
%LPD*%
M02*
