%TF.GenerationSoftware,KiCad,Pcbnew,7.0.5*%
%TF.CreationDate,2023-07-03T19:11:47+08:00*%
%TF.ProjectId,raspnixie-kicad,72617370-6e69-4786-9965-2d6b69636164,rev?*%
%TF.SameCoordinates,Original*%
%TF.FileFunction,Legend,Bot*%
%TF.FilePolarity,Positive*%
%FSLAX46Y46*%
G04 Gerber Fmt 4.6, Leading zero omitted, Abs format (unit mm)*
G04 Created by KiCad (PCBNEW 7.0.5) date 2023-07-03 19:11:47*
%MOMM*%
%LPD*%
G01*
G04 APERTURE LIST*
G04 Aperture macros list*
%AMRoundRect*
0 Rectangle with rounded corners*
0 $1 Rounding radius*
0 $2 $3 $4 $5 $6 $7 $8 $9 X,Y pos of 4 corners*
0 Add a 4 corners polygon primitive as box body*
4,1,4,$2,$3,$4,$5,$6,$7,$8,$9,$2,$3,0*
0 Add four circle primitives for the rounded corners*
1,1,$1+$1,$2,$3*
1,1,$1+$1,$4,$5*
1,1,$1+$1,$6,$7*
1,1,$1+$1,$8,$9*
0 Add four rect primitives between the rounded corners*
20,1,$1+$1,$2,$3,$4,$5,0*
20,1,$1+$1,$4,$5,$6,$7,0*
20,1,$1+$1,$6,$7,$8,$9,0*
20,1,$1+$1,$8,$9,$2,$3,0*%
G04 Aperture macros list end*
%ADD10C,0.150000*%
%ADD11C,0.120000*%
%ADD12C,0.800000*%
%ADD13C,5.400000*%
%ADD14C,1.600000*%
%ADD15R,2.000000X2.000000*%
%ADD16C,2.000000*%
%ADD17R,1.600000X2.400000*%
%ADD18O,1.600000X2.400000*%
%ADD19R,2.400000X1.600000*%
%ADD20O,2.400000X1.600000*%
%ADD21R,2.000000X1.905000*%
%ADD22O,2.000000X1.905000*%
%ADD23R,3.500000X3.500000*%
%ADD24RoundRect,0.750000X-1.000000X0.750000X-1.000000X-0.750000X1.000000X-0.750000X1.000000X0.750000X0*%
%ADD25RoundRect,0.875000X-0.875000X0.875000X-0.875000X-0.875000X0.875000X-0.875000X0.875000X0.875000X0*%
%ADD26RoundRect,0.250000X-0.625000X0.400000X-0.625000X-0.400000X0.625000X-0.400000X0.625000X0.400000X0*%
%ADD27RoundRect,0.250000X-0.400000X-0.625000X0.400000X-0.625000X0.400000X0.625000X-0.400000X0.625000X0*%
%ADD28RoundRect,0.250000X0.400000X0.625000X-0.400000X0.625000X-0.400000X-0.625000X0.400000X-0.625000X0*%
%ADD29R,2.300000X3.500000*%
%ADD30R,2.500000X1.000000*%
%ADD31R,1.000000X1.800000*%
%ADD32RoundRect,0.250000X0.412500X0.650000X-0.412500X0.650000X-0.412500X-0.650000X0.412500X-0.650000X0*%
%ADD33RoundRect,0.250000X-0.650000X0.412500X-0.650000X-0.412500X0.650000X-0.412500X0.650000X0.412500X0*%
%ADD34RoundRect,0.249999X-1.075001X0.450001X-1.075001X-0.450001X1.075001X-0.450001X1.075001X0.450001X0*%
%ADD35RoundRect,0.250000X1.025000X-0.875000X1.025000X0.875000X-1.025000X0.875000X-1.025000X-0.875000X0*%
%ADD36RoundRect,0.250000X-0.412500X-0.650000X0.412500X-0.650000X0.412500X0.650000X-0.412500X0.650000X0*%
G04 APERTURE END LIST*
D10*
X127126904Y-39920152D02*
X127126904Y-40586819D01*
X127555475Y-39920152D02*
X127555475Y-40443961D01*
X127555475Y-40443961D02*
X127507856Y-40539200D01*
X127507856Y-40539200D02*
X127412618Y-40586819D01*
X127412618Y-40586819D02*
X127269761Y-40586819D01*
X127269761Y-40586819D02*
X127174523Y-40539200D01*
X127174523Y-40539200D02*
X127126904Y-40491580D01*
X126745951Y-39920152D02*
X126555475Y-40586819D01*
X126555475Y-40586819D02*
X126364999Y-40110628D01*
X126364999Y-40110628D02*
X126174523Y-40586819D01*
X126174523Y-40586819D02*
X125984047Y-39920152D01*
X125174523Y-39920152D02*
X125174523Y-40586819D01*
X125603094Y-39920152D02*
X125603094Y-40443961D01*
X125603094Y-40443961D02*
X125555475Y-40539200D01*
X125555475Y-40539200D02*
X125460237Y-40586819D01*
X125460237Y-40586819D02*
X125317380Y-40586819D01*
X125317380Y-40586819D02*
X125222142Y-40539200D01*
X125222142Y-40539200D02*
X125174523Y-40491580D01*
%TO.C,R10*%
X135201819Y-66032142D02*
X134725628Y-65698809D01*
X135201819Y-65460714D02*
X134201819Y-65460714D01*
X134201819Y-65460714D02*
X134201819Y-65841666D01*
X134201819Y-65841666D02*
X134249438Y-65936904D01*
X134249438Y-65936904D02*
X134297057Y-65984523D01*
X134297057Y-65984523D02*
X134392295Y-66032142D01*
X134392295Y-66032142D02*
X134535152Y-66032142D01*
X134535152Y-66032142D02*
X134630390Y-65984523D01*
X134630390Y-65984523D02*
X134678009Y-65936904D01*
X134678009Y-65936904D02*
X134725628Y-65841666D01*
X134725628Y-65841666D02*
X134725628Y-65460714D01*
X135201819Y-66984523D02*
X135201819Y-66413095D01*
X135201819Y-66698809D02*
X134201819Y-66698809D01*
X134201819Y-66698809D02*
X134344676Y-66603571D01*
X134344676Y-66603571D02*
X134439914Y-66508333D01*
X134439914Y-66508333D02*
X134487533Y-66413095D01*
X134201819Y-67603571D02*
X134201819Y-67698809D01*
X134201819Y-67698809D02*
X134249438Y-67794047D01*
X134249438Y-67794047D02*
X134297057Y-67841666D01*
X134297057Y-67841666D02*
X134392295Y-67889285D01*
X134392295Y-67889285D02*
X134582771Y-67936904D01*
X134582771Y-67936904D02*
X134820866Y-67936904D01*
X134820866Y-67936904D02*
X135011342Y-67889285D01*
X135011342Y-67889285D02*
X135106580Y-67841666D01*
X135106580Y-67841666D02*
X135154200Y-67794047D01*
X135154200Y-67794047D02*
X135201819Y-67698809D01*
X135201819Y-67698809D02*
X135201819Y-67603571D01*
X135201819Y-67603571D02*
X135154200Y-67508333D01*
X135154200Y-67508333D02*
X135106580Y-67460714D01*
X135106580Y-67460714D02*
X135011342Y-67413095D01*
X135011342Y-67413095D02*
X134820866Y-67365476D01*
X134820866Y-67365476D02*
X134582771Y-67365476D01*
X134582771Y-67365476D02*
X134392295Y-67413095D01*
X134392295Y-67413095D02*
X134297057Y-67460714D01*
X134297057Y-67460714D02*
X134249438Y-67508333D01*
X134249438Y-67508333D02*
X134201819Y-67603571D01*
%TO.C,R5*%
X76393743Y-76342896D02*
X76727076Y-75866705D01*
X76965171Y-76342896D02*
X76965171Y-75342896D01*
X76965171Y-75342896D02*
X76584219Y-75342896D01*
X76584219Y-75342896D02*
X76488981Y-75390515D01*
X76488981Y-75390515D02*
X76441362Y-75438134D01*
X76441362Y-75438134D02*
X76393743Y-75533372D01*
X76393743Y-75533372D02*
X76393743Y-75676229D01*
X76393743Y-75676229D02*
X76441362Y-75771467D01*
X76441362Y-75771467D02*
X76488981Y-75819086D01*
X76488981Y-75819086D02*
X76584219Y-75866705D01*
X76584219Y-75866705D02*
X76965171Y-75866705D01*
X75488981Y-75342896D02*
X75965171Y-75342896D01*
X75965171Y-75342896D02*
X76012790Y-75819086D01*
X76012790Y-75819086D02*
X75965171Y-75771467D01*
X75965171Y-75771467D02*
X75869933Y-75723848D01*
X75869933Y-75723848D02*
X75631838Y-75723848D01*
X75631838Y-75723848D02*
X75536600Y-75771467D01*
X75536600Y-75771467D02*
X75488981Y-75819086D01*
X75488981Y-75819086D02*
X75441362Y-75914324D01*
X75441362Y-75914324D02*
X75441362Y-76152419D01*
X75441362Y-76152419D02*
X75488981Y-76247657D01*
X75488981Y-76247657D02*
X75536600Y-76295277D01*
X75536600Y-76295277D02*
X75631838Y-76342896D01*
X75631838Y-76342896D02*
X75869933Y-76342896D01*
X75869933Y-76342896D02*
X75965171Y-76295277D01*
X75965171Y-76295277D02*
X76012790Y-76247657D01*
%TO.C,R11*%
X134947819Y-72128142D02*
X134471628Y-71794809D01*
X134947819Y-71556714D02*
X133947819Y-71556714D01*
X133947819Y-71556714D02*
X133947819Y-71937666D01*
X133947819Y-71937666D02*
X133995438Y-72032904D01*
X133995438Y-72032904D02*
X134043057Y-72080523D01*
X134043057Y-72080523D02*
X134138295Y-72128142D01*
X134138295Y-72128142D02*
X134281152Y-72128142D01*
X134281152Y-72128142D02*
X134376390Y-72080523D01*
X134376390Y-72080523D02*
X134424009Y-72032904D01*
X134424009Y-72032904D02*
X134471628Y-71937666D01*
X134471628Y-71937666D02*
X134471628Y-71556714D01*
X134947819Y-73080523D02*
X134947819Y-72509095D01*
X134947819Y-72794809D02*
X133947819Y-72794809D01*
X133947819Y-72794809D02*
X134090676Y-72699571D01*
X134090676Y-72699571D02*
X134185914Y-72604333D01*
X134185914Y-72604333D02*
X134233533Y-72509095D01*
X134947819Y-74032904D02*
X134947819Y-73461476D01*
X134947819Y-73747190D02*
X133947819Y-73747190D01*
X133947819Y-73747190D02*
X134090676Y-73651952D01*
X134090676Y-73651952D02*
X134185914Y-73556714D01*
X134185914Y-73556714D02*
X134233533Y-73461476D01*
%TO.C,R8*%
X122975666Y-72702896D02*
X123308999Y-72226705D01*
X123547094Y-72702896D02*
X123547094Y-71702896D01*
X123547094Y-71702896D02*
X123166142Y-71702896D01*
X123166142Y-71702896D02*
X123070904Y-71750515D01*
X123070904Y-71750515D02*
X123023285Y-71798134D01*
X123023285Y-71798134D02*
X122975666Y-71893372D01*
X122975666Y-71893372D02*
X122975666Y-72036229D01*
X122975666Y-72036229D02*
X123023285Y-72131467D01*
X123023285Y-72131467D02*
X123070904Y-72179086D01*
X123070904Y-72179086D02*
X123166142Y-72226705D01*
X123166142Y-72226705D02*
X123547094Y-72226705D01*
X122404237Y-72131467D02*
X122499475Y-72083848D01*
X122499475Y-72083848D02*
X122547094Y-72036229D01*
X122547094Y-72036229D02*
X122594713Y-71940991D01*
X122594713Y-71940991D02*
X122594713Y-71893372D01*
X122594713Y-71893372D02*
X122547094Y-71798134D01*
X122547094Y-71798134D02*
X122499475Y-71750515D01*
X122499475Y-71750515D02*
X122404237Y-71702896D01*
X122404237Y-71702896D02*
X122213761Y-71702896D01*
X122213761Y-71702896D02*
X122118523Y-71750515D01*
X122118523Y-71750515D02*
X122070904Y-71798134D01*
X122070904Y-71798134D02*
X122023285Y-71893372D01*
X122023285Y-71893372D02*
X122023285Y-71940991D01*
X122023285Y-71940991D02*
X122070904Y-72036229D01*
X122070904Y-72036229D02*
X122118523Y-72083848D01*
X122118523Y-72083848D02*
X122213761Y-72131467D01*
X122213761Y-72131467D02*
X122404237Y-72131467D01*
X122404237Y-72131467D02*
X122499475Y-72179086D01*
X122499475Y-72179086D02*
X122547094Y-72226705D01*
X122547094Y-72226705D02*
X122594713Y-72321943D01*
X122594713Y-72321943D02*
X122594713Y-72512419D01*
X122594713Y-72512419D02*
X122547094Y-72607657D01*
X122547094Y-72607657D02*
X122499475Y-72655277D01*
X122499475Y-72655277D02*
X122404237Y-72702896D01*
X122404237Y-72702896D02*
X122213761Y-72702896D01*
X122213761Y-72702896D02*
X122118523Y-72655277D01*
X122118523Y-72655277D02*
X122070904Y-72607657D01*
X122070904Y-72607657D02*
X122023285Y-72512419D01*
X122023285Y-72512419D02*
X122023285Y-72321943D01*
X122023285Y-72321943D02*
X122070904Y-72226705D01*
X122070904Y-72226705D02*
X122118523Y-72179086D01*
X122118523Y-72179086D02*
X122213761Y-72131467D01*
%TO.C,R7*%
X108143743Y-76342896D02*
X108477076Y-75866705D01*
X108715171Y-76342896D02*
X108715171Y-75342896D01*
X108715171Y-75342896D02*
X108334219Y-75342896D01*
X108334219Y-75342896D02*
X108238981Y-75390515D01*
X108238981Y-75390515D02*
X108191362Y-75438134D01*
X108191362Y-75438134D02*
X108143743Y-75533372D01*
X108143743Y-75533372D02*
X108143743Y-75676229D01*
X108143743Y-75676229D02*
X108191362Y-75771467D01*
X108191362Y-75771467D02*
X108238981Y-75819086D01*
X108238981Y-75819086D02*
X108334219Y-75866705D01*
X108334219Y-75866705D02*
X108715171Y-75866705D01*
X107810409Y-75342896D02*
X107143743Y-75342896D01*
X107143743Y-75342896D02*
X107572314Y-76342896D01*
%TO.C,D1*%
X119072819Y-69873905D02*
X118072819Y-69873905D01*
X118072819Y-69873905D02*
X118072819Y-70112000D01*
X118072819Y-70112000D02*
X118120438Y-70254857D01*
X118120438Y-70254857D02*
X118215676Y-70350095D01*
X118215676Y-70350095D02*
X118310914Y-70397714D01*
X118310914Y-70397714D02*
X118501390Y-70445333D01*
X118501390Y-70445333D02*
X118644247Y-70445333D01*
X118644247Y-70445333D02*
X118834723Y-70397714D01*
X118834723Y-70397714D02*
X118929961Y-70350095D01*
X118929961Y-70350095D02*
X119025200Y-70254857D01*
X119025200Y-70254857D02*
X119072819Y-70112000D01*
X119072819Y-70112000D02*
X119072819Y-69873905D01*
X119072819Y-71397714D02*
X119072819Y-70826286D01*
X119072819Y-71112000D02*
X118072819Y-71112000D01*
X118072819Y-71112000D02*
X118215676Y-71016762D01*
X118215676Y-71016762D02*
X118310914Y-70921524D01*
X118310914Y-70921524D02*
X118358533Y-70826286D01*
%TO.C,C9*%
X127293666Y-62081580D02*
X127341285Y-62129200D01*
X127341285Y-62129200D02*
X127484142Y-62176819D01*
X127484142Y-62176819D02*
X127579380Y-62176819D01*
X127579380Y-62176819D02*
X127722237Y-62129200D01*
X127722237Y-62129200D02*
X127817475Y-62033961D01*
X127817475Y-62033961D02*
X127865094Y-61938723D01*
X127865094Y-61938723D02*
X127912713Y-61748247D01*
X127912713Y-61748247D02*
X127912713Y-61605390D01*
X127912713Y-61605390D02*
X127865094Y-61414914D01*
X127865094Y-61414914D02*
X127817475Y-61319676D01*
X127817475Y-61319676D02*
X127722237Y-61224438D01*
X127722237Y-61224438D02*
X127579380Y-61176819D01*
X127579380Y-61176819D02*
X127484142Y-61176819D01*
X127484142Y-61176819D02*
X127341285Y-61224438D01*
X127341285Y-61224438D02*
X127293666Y-61272057D01*
X126817475Y-62176819D02*
X126626999Y-62176819D01*
X126626999Y-62176819D02*
X126531761Y-62129200D01*
X126531761Y-62129200D02*
X126484142Y-62081580D01*
X126484142Y-62081580D02*
X126388904Y-61938723D01*
X126388904Y-61938723D02*
X126341285Y-61748247D01*
X126341285Y-61748247D02*
X126341285Y-61367295D01*
X126341285Y-61367295D02*
X126388904Y-61272057D01*
X126388904Y-61272057D02*
X126436523Y-61224438D01*
X126436523Y-61224438D02*
X126531761Y-61176819D01*
X126531761Y-61176819D02*
X126722237Y-61176819D01*
X126722237Y-61176819D02*
X126817475Y-61224438D01*
X126817475Y-61224438D02*
X126865094Y-61272057D01*
X126865094Y-61272057D02*
X126912713Y-61367295D01*
X126912713Y-61367295D02*
X126912713Y-61605390D01*
X126912713Y-61605390D02*
X126865094Y-61700628D01*
X126865094Y-61700628D02*
X126817475Y-61748247D01*
X126817475Y-61748247D02*
X126722237Y-61795866D01*
X126722237Y-61795866D02*
X126531761Y-61795866D01*
X126531761Y-61795866D02*
X126436523Y-61748247D01*
X126436523Y-61748247D02*
X126388904Y-61700628D01*
X126388904Y-61700628D02*
X126341285Y-61605390D01*
%TO.C,C3*%
X67978580Y-62471410D02*
X68026200Y-62423791D01*
X68026200Y-62423791D02*
X68073819Y-62280934D01*
X68073819Y-62280934D02*
X68073819Y-62185696D01*
X68073819Y-62185696D02*
X68026200Y-62042839D01*
X68026200Y-62042839D02*
X67930961Y-61947601D01*
X67930961Y-61947601D02*
X67835723Y-61899982D01*
X67835723Y-61899982D02*
X67645247Y-61852363D01*
X67645247Y-61852363D02*
X67502390Y-61852363D01*
X67502390Y-61852363D02*
X67311914Y-61899982D01*
X67311914Y-61899982D02*
X67216676Y-61947601D01*
X67216676Y-61947601D02*
X67121438Y-62042839D01*
X67121438Y-62042839D02*
X67073819Y-62185696D01*
X67073819Y-62185696D02*
X67073819Y-62280934D01*
X67073819Y-62280934D02*
X67121438Y-62423791D01*
X67121438Y-62423791D02*
X67169057Y-62471410D01*
X67073819Y-62804744D02*
X67073819Y-63423791D01*
X67073819Y-63423791D02*
X67454771Y-63090458D01*
X67454771Y-63090458D02*
X67454771Y-63233315D01*
X67454771Y-63233315D02*
X67502390Y-63328553D01*
X67502390Y-63328553D02*
X67550009Y-63376172D01*
X67550009Y-63376172D02*
X67645247Y-63423791D01*
X67645247Y-63423791D02*
X67883342Y-63423791D01*
X67883342Y-63423791D02*
X67978580Y-63376172D01*
X67978580Y-63376172D02*
X68026200Y-63328553D01*
X68026200Y-63328553D02*
X68073819Y-63233315D01*
X68073819Y-63233315D02*
X68073819Y-62947601D01*
X68073819Y-62947601D02*
X68026200Y-62852363D01*
X68026200Y-62852363D02*
X67978580Y-62804744D01*
%TO.C,C4*%
X79756272Y-62471410D02*
X79803892Y-62423791D01*
X79803892Y-62423791D02*
X79851511Y-62280934D01*
X79851511Y-62280934D02*
X79851511Y-62185696D01*
X79851511Y-62185696D02*
X79803892Y-62042839D01*
X79803892Y-62042839D02*
X79708653Y-61947601D01*
X79708653Y-61947601D02*
X79613415Y-61899982D01*
X79613415Y-61899982D02*
X79422939Y-61852363D01*
X79422939Y-61852363D02*
X79280082Y-61852363D01*
X79280082Y-61852363D02*
X79089606Y-61899982D01*
X79089606Y-61899982D02*
X78994368Y-61947601D01*
X78994368Y-61947601D02*
X78899130Y-62042839D01*
X78899130Y-62042839D02*
X78851511Y-62185696D01*
X78851511Y-62185696D02*
X78851511Y-62280934D01*
X78851511Y-62280934D02*
X78899130Y-62423791D01*
X78899130Y-62423791D02*
X78946749Y-62471410D01*
X79184844Y-63328553D02*
X79851511Y-63328553D01*
X78803892Y-63090458D02*
X79518177Y-62852363D01*
X79518177Y-62852363D02*
X79518177Y-63471410D01*
%TO.C,C11*%
X128502580Y-72951565D02*
X128550200Y-72903946D01*
X128550200Y-72903946D02*
X128597819Y-72761089D01*
X128597819Y-72761089D02*
X128597819Y-72665851D01*
X128597819Y-72665851D02*
X128550200Y-72522994D01*
X128550200Y-72522994D02*
X128454961Y-72427756D01*
X128454961Y-72427756D02*
X128359723Y-72380137D01*
X128359723Y-72380137D02*
X128169247Y-72332518D01*
X128169247Y-72332518D02*
X128026390Y-72332518D01*
X128026390Y-72332518D02*
X127835914Y-72380137D01*
X127835914Y-72380137D02*
X127740676Y-72427756D01*
X127740676Y-72427756D02*
X127645438Y-72522994D01*
X127645438Y-72522994D02*
X127597819Y-72665851D01*
X127597819Y-72665851D02*
X127597819Y-72761089D01*
X127597819Y-72761089D02*
X127645438Y-72903946D01*
X127645438Y-72903946D02*
X127693057Y-72951565D01*
X128597819Y-73903946D02*
X128597819Y-73332518D01*
X128597819Y-73618232D02*
X127597819Y-73618232D01*
X127597819Y-73618232D02*
X127740676Y-73522994D01*
X127740676Y-73522994D02*
X127835914Y-73427756D01*
X127835914Y-73427756D02*
X127883533Y-73332518D01*
X128597819Y-74856327D02*
X128597819Y-74284899D01*
X128597819Y-74570613D02*
X127597819Y-74570613D01*
X127597819Y-74570613D02*
X127740676Y-74475375D01*
X127740676Y-74475375D02*
X127835914Y-74380137D01*
X127835914Y-74380137D02*
X127883533Y-74284899D01*
%TO.C,R9*%
X123263819Y-62825333D02*
X122787628Y-62492000D01*
X123263819Y-62253905D02*
X122263819Y-62253905D01*
X122263819Y-62253905D02*
X122263819Y-62634857D01*
X122263819Y-62634857D02*
X122311438Y-62730095D01*
X122311438Y-62730095D02*
X122359057Y-62777714D01*
X122359057Y-62777714D02*
X122454295Y-62825333D01*
X122454295Y-62825333D02*
X122597152Y-62825333D01*
X122597152Y-62825333D02*
X122692390Y-62777714D01*
X122692390Y-62777714D02*
X122740009Y-62730095D01*
X122740009Y-62730095D02*
X122787628Y-62634857D01*
X122787628Y-62634857D02*
X122787628Y-62253905D01*
X123263819Y-63301524D02*
X123263819Y-63492000D01*
X123263819Y-63492000D02*
X123216200Y-63587238D01*
X123216200Y-63587238D02*
X123168580Y-63634857D01*
X123168580Y-63634857D02*
X123025723Y-63730095D01*
X123025723Y-63730095D02*
X122835247Y-63777714D01*
X122835247Y-63777714D02*
X122454295Y-63777714D01*
X122454295Y-63777714D02*
X122359057Y-63730095D01*
X122359057Y-63730095D02*
X122311438Y-63682476D01*
X122311438Y-63682476D02*
X122263819Y-63587238D01*
X122263819Y-63587238D02*
X122263819Y-63396762D01*
X122263819Y-63396762D02*
X122311438Y-63301524D01*
X122311438Y-63301524D02*
X122359057Y-63253905D01*
X122359057Y-63253905D02*
X122454295Y-63206286D01*
X122454295Y-63206286D02*
X122692390Y-63206286D01*
X122692390Y-63206286D02*
X122787628Y-63253905D01*
X122787628Y-63253905D02*
X122835247Y-63301524D01*
X122835247Y-63301524D02*
X122882866Y-63396762D01*
X122882866Y-63396762D02*
X122882866Y-63587238D01*
X122882866Y-63587238D02*
X122835247Y-63682476D01*
X122835247Y-63682476D02*
X122787628Y-63730095D01*
X122787628Y-63730095D02*
X122692390Y-63777714D01*
%TO.C,C6*%
X103311657Y-62471410D02*
X103359277Y-62423791D01*
X103359277Y-62423791D02*
X103406896Y-62280934D01*
X103406896Y-62280934D02*
X103406896Y-62185696D01*
X103406896Y-62185696D02*
X103359277Y-62042839D01*
X103359277Y-62042839D02*
X103264038Y-61947601D01*
X103264038Y-61947601D02*
X103168800Y-61899982D01*
X103168800Y-61899982D02*
X102978324Y-61852363D01*
X102978324Y-61852363D02*
X102835467Y-61852363D01*
X102835467Y-61852363D02*
X102644991Y-61899982D01*
X102644991Y-61899982D02*
X102549753Y-61947601D01*
X102549753Y-61947601D02*
X102454515Y-62042839D01*
X102454515Y-62042839D02*
X102406896Y-62185696D01*
X102406896Y-62185696D02*
X102406896Y-62280934D01*
X102406896Y-62280934D02*
X102454515Y-62423791D01*
X102454515Y-62423791D02*
X102502134Y-62471410D01*
X102406896Y-63328553D02*
X102406896Y-63138077D01*
X102406896Y-63138077D02*
X102454515Y-63042839D01*
X102454515Y-63042839D02*
X102502134Y-62995220D01*
X102502134Y-62995220D02*
X102644991Y-62899982D01*
X102644991Y-62899982D02*
X102835467Y-62852363D01*
X102835467Y-62852363D02*
X103216419Y-62852363D01*
X103216419Y-62852363D02*
X103311657Y-62899982D01*
X103311657Y-62899982D02*
X103359277Y-62947601D01*
X103359277Y-62947601D02*
X103406896Y-63042839D01*
X103406896Y-63042839D02*
X103406896Y-63233315D01*
X103406896Y-63233315D02*
X103359277Y-63328553D01*
X103359277Y-63328553D02*
X103311657Y-63376172D01*
X103311657Y-63376172D02*
X103216419Y-63423791D01*
X103216419Y-63423791D02*
X102978324Y-63423791D01*
X102978324Y-63423791D02*
X102883086Y-63376172D01*
X102883086Y-63376172D02*
X102835467Y-63328553D01*
X102835467Y-63328553D02*
X102787848Y-63233315D01*
X102787848Y-63233315D02*
X102787848Y-63042839D01*
X102787848Y-63042839D02*
X102835467Y-62947601D01*
X102835467Y-62947601D02*
X102883086Y-62899982D01*
X102883086Y-62899982D02*
X102978324Y-62852363D01*
%TO.C,R6*%
X92268743Y-76342896D02*
X92602076Y-75866705D01*
X92840171Y-76342896D02*
X92840171Y-75342896D01*
X92840171Y-75342896D02*
X92459219Y-75342896D01*
X92459219Y-75342896D02*
X92363981Y-75390515D01*
X92363981Y-75390515D02*
X92316362Y-75438134D01*
X92316362Y-75438134D02*
X92268743Y-75533372D01*
X92268743Y-75533372D02*
X92268743Y-75676229D01*
X92268743Y-75676229D02*
X92316362Y-75771467D01*
X92316362Y-75771467D02*
X92363981Y-75819086D01*
X92363981Y-75819086D02*
X92459219Y-75866705D01*
X92459219Y-75866705D02*
X92840171Y-75866705D01*
X91411600Y-75342896D02*
X91602076Y-75342896D01*
X91602076Y-75342896D02*
X91697314Y-75390515D01*
X91697314Y-75390515D02*
X91744933Y-75438134D01*
X91744933Y-75438134D02*
X91840171Y-75580991D01*
X91840171Y-75580991D02*
X91887790Y-75771467D01*
X91887790Y-75771467D02*
X91887790Y-76152419D01*
X91887790Y-76152419D02*
X91840171Y-76247657D01*
X91840171Y-76247657D02*
X91792552Y-76295277D01*
X91792552Y-76295277D02*
X91697314Y-76342896D01*
X91697314Y-76342896D02*
X91506838Y-76342896D01*
X91506838Y-76342896D02*
X91411600Y-76295277D01*
X91411600Y-76295277D02*
X91363981Y-76247657D01*
X91363981Y-76247657D02*
X91316362Y-76152419D01*
X91316362Y-76152419D02*
X91316362Y-75914324D01*
X91316362Y-75914324D02*
X91363981Y-75819086D01*
X91363981Y-75819086D02*
X91411600Y-75771467D01*
X91411600Y-75771467D02*
X91506838Y-75723848D01*
X91506838Y-75723848D02*
X91697314Y-75723848D01*
X91697314Y-75723848D02*
X91792552Y-75771467D01*
X91792552Y-75771467D02*
X91840171Y-75819086D01*
X91840171Y-75819086D02*
X91887790Y-75914324D01*
%TO.C,C10*%
X113643580Y-70223142D02*
X113691200Y-70175523D01*
X113691200Y-70175523D02*
X113738819Y-70032666D01*
X113738819Y-70032666D02*
X113738819Y-69937428D01*
X113738819Y-69937428D02*
X113691200Y-69794571D01*
X113691200Y-69794571D02*
X113595961Y-69699333D01*
X113595961Y-69699333D02*
X113500723Y-69651714D01*
X113500723Y-69651714D02*
X113310247Y-69604095D01*
X113310247Y-69604095D02*
X113167390Y-69604095D01*
X113167390Y-69604095D02*
X112976914Y-69651714D01*
X112976914Y-69651714D02*
X112881676Y-69699333D01*
X112881676Y-69699333D02*
X112786438Y-69794571D01*
X112786438Y-69794571D02*
X112738819Y-69937428D01*
X112738819Y-69937428D02*
X112738819Y-70032666D01*
X112738819Y-70032666D02*
X112786438Y-70175523D01*
X112786438Y-70175523D02*
X112834057Y-70223142D01*
X113738819Y-71175523D02*
X113738819Y-70604095D01*
X113738819Y-70889809D02*
X112738819Y-70889809D01*
X112738819Y-70889809D02*
X112881676Y-70794571D01*
X112881676Y-70794571D02*
X112976914Y-70699333D01*
X112976914Y-70699333D02*
X113024533Y-70604095D01*
X112738819Y-71794571D02*
X112738819Y-71889809D01*
X112738819Y-71889809D02*
X112786438Y-71985047D01*
X112786438Y-71985047D02*
X112834057Y-72032666D01*
X112834057Y-72032666D02*
X112929295Y-72080285D01*
X112929295Y-72080285D02*
X113119771Y-72127904D01*
X113119771Y-72127904D02*
X113357866Y-72127904D01*
X113357866Y-72127904D02*
X113548342Y-72080285D01*
X113548342Y-72080285D02*
X113643580Y-72032666D01*
X113643580Y-72032666D02*
X113691200Y-71985047D01*
X113691200Y-71985047D02*
X113738819Y-71889809D01*
X113738819Y-71889809D02*
X113738819Y-71794571D01*
X113738819Y-71794571D02*
X113691200Y-71699333D01*
X113691200Y-71699333D02*
X113643580Y-71651714D01*
X113643580Y-71651714D02*
X113548342Y-71604095D01*
X113548342Y-71604095D02*
X113357866Y-71556476D01*
X113357866Y-71556476D02*
X113119771Y-71556476D01*
X113119771Y-71556476D02*
X112929295Y-71604095D01*
X112929295Y-71604095D02*
X112834057Y-71651714D01*
X112834057Y-71651714D02*
X112786438Y-71699333D01*
X112786438Y-71699333D02*
X112738819Y-71794571D01*
%TO.C,C2*%
X94173743Y-46432657D02*
X94221362Y-46480277D01*
X94221362Y-46480277D02*
X94364219Y-46527896D01*
X94364219Y-46527896D02*
X94459457Y-46527896D01*
X94459457Y-46527896D02*
X94602314Y-46480277D01*
X94602314Y-46480277D02*
X94697552Y-46385038D01*
X94697552Y-46385038D02*
X94745171Y-46289800D01*
X94745171Y-46289800D02*
X94792790Y-46099324D01*
X94792790Y-46099324D02*
X94792790Y-45956467D01*
X94792790Y-45956467D02*
X94745171Y-45765991D01*
X94745171Y-45765991D02*
X94697552Y-45670753D01*
X94697552Y-45670753D02*
X94602314Y-45575515D01*
X94602314Y-45575515D02*
X94459457Y-45527896D01*
X94459457Y-45527896D02*
X94364219Y-45527896D01*
X94364219Y-45527896D02*
X94221362Y-45575515D01*
X94221362Y-45575515D02*
X94173743Y-45623134D01*
X93792790Y-45623134D02*
X93745171Y-45575515D01*
X93745171Y-45575515D02*
X93649933Y-45527896D01*
X93649933Y-45527896D02*
X93411838Y-45527896D01*
X93411838Y-45527896D02*
X93316600Y-45575515D01*
X93316600Y-45575515D02*
X93268981Y-45623134D01*
X93268981Y-45623134D02*
X93221362Y-45718372D01*
X93221362Y-45718372D02*
X93221362Y-45813610D01*
X93221362Y-45813610D02*
X93268981Y-45956467D01*
X93268981Y-45956467D02*
X93840409Y-46527896D01*
X93840409Y-46527896D02*
X93221362Y-46527896D01*
%TO.C,C1*%
X73218743Y-46432657D02*
X73266362Y-46480277D01*
X73266362Y-46480277D02*
X73409219Y-46527896D01*
X73409219Y-46527896D02*
X73504457Y-46527896D01*
X73504457Y-46527896D02*
X73647314Y-46480277D01*
X73647314Y-46480277D02*
X73742552Y-46385038D01*
X73742552Y-46385038D02*
X73790171Y-46289800D01*
X73790171Y-46289800D02*
X73837790Y-46099324D01*
X73837790Y-46099324D02*
X73837790Y-45956467D01*
X73837790Y-45956467D02*
X73790171Y-45765991D01*
X73790171Y-45765991D02*
X73742552Y-45670753D01*
X73742552Y-45670753D02*
X73647314Y-45575515D01*
X73647314Y-45575515D02*
X73504457Y-45527896D01*
X73504457Y-45527896D02*
X73409219Y-45527896D01*
X73409219Y-45527896D02*
X73266362Y-45575515D01*
X73266362Y-45575515D02*
X73218743Y-45623134D01*
X72266362Y-46527896D02*
X72837790Y-46527896D01*
X72552076Y-46527896D02*
X72552076Y-45527896D01*
X72552076Y-45527896D02*
X72647314Y-45670753D01*
X72647314Y-45670753D02*
X72742552Y-45765991D01*
X72742552Y-45765991D02*
X72837790Y-45813610D01*
%TO.C,C5*%
X91533964Y-62471410D02*
X91581584Y-62423791D01*
X91581584Y-62423791D02*
X91629203Y-62280934D01*
X91629203Y-62280934D02*
X91629203Y-62185696D01*
X91629203Y-62185696D02*
X91581584Y-62042839D01*
X91581584Y-62042839D02*
X91486345Y-61947601D01*
X91486345Y-61947601D02*
X91391107Y-61899982D01*
X91391107Y-61899982D02*
X91200631Y-61852363D01*
X91200631Y-61852363D02*
X91057774Y-61852363D01*
X91057774Y-61852363D02*
X90867298Y-61899982D01*
X90867298Y-61899982D02*
X90772060Y-61947601D01*
X90772060Y-61947601D02*
X90676822Y-62042839D01*
X90676822Y-62042839D02*
X90629203Y-62185696D01*
X90629203Y-62185696D02*
X90629203Y-62280934D01*
X90629203Y-62280934D02*
X90676822Y-62423791D01*
X90676822Y-62423791D02*
X90724441Y-62471410D01*
X90629203Y-63376172D02*
X90629203Y-62899982D01*
X90629203Y-62899982D02*
X91105393Y-62852363D01*
X91105393Y-62852363D02*
X91057774Y-62899982D01*
X91057774Y-62899982D02*
X91010155Y-62995220D01*
X91010155Y-62995220D02*
X91010155Y-63233315D01*
X91010155Y-63233315D02*
X91057774Y-63328553D01*
X91057774Y-63328553D02*
X91105393Y-63376172D01*
X91105393Y-63376172D02*
X91200631Y-63423791D01*
X91200631Y-63423791D02*
X91438726Y-63423791D01*
X91438726Y-63423791D02*
X91533964Y-63376172D01*
X91533964Y-63376172D02*
X91581584Y-63328553D01*
X91581584Y-63328553D02*
X91629203Y-63233315D01*
X91629203Y-63233315D02*
X91629203Y-62995220D01*
X91629203Y-62995220D02*
X91581584Y-62899982D01*
X91581584Y-62899982D02*
X91533964Y-62852363D01*
D11*
%TO.C,R10*%
X133498000Y-65947936D02*
X133498000Y-67402064D01*
X131678000Y-65947936D02*
X131678000Y-67402064D01*
%TO.C,R5*%
X75500013Y-73158077D02*
X76954141Y-73158077D01*
X75500013Y-74978077D02*
X76954141Y-74978077D01*
%TO.C,R11*%
X133498000Y-71154936D02*
X133498000Y-72609064D01*
X131678000Y-71154936D02*
X131678000Y-72609064D01*
%TO.C,R8*%
X123536064Y-73158077D02*
X122081936Y-73158077D01*
X123536064Y-74978077D02*
X122081936Y-74978077D01*
%TO.C,R7*%
X107250013Y-74978077D02*
X108704141Y-74978077D01*
X107250013Y-73158077D02*
X108704141Y-73158077D01*
%TO.C,D1*%
X120768000Y-60043000D02*
X120768000Y-67343000D01*
X116468000Y-60043000D02*
X120768000Y-60043000D01*
X116468000Y-60043000D02*
X116468000Y-67343000D01*
%TO.C,U1*%
X134512077Y-58248077D02*
X134512077Y-57628077D01*
X134512077Y-41628077D02*
X135122077Y-41628077D01*
X134512077Y-41628077D02*
X134512077Y-34008077D01*
X132392077Y-58248077D02*
X134512077Y-58248077D01*
X118272077Y-34008077D02*
X118272077Y-41628077D01*
X118272077Y-58248077D02*
X120392077Y-58248077D01*
X134512077Y-34008077D02*
X118272077Y-34008077D01*
X118272077Y-57628077D02*
X118272077Y-58248077D01*
%TO.C,C9*%
X131775252Y-60812000D02*
X130352748Y-60812000D01*
X131775252Y-62632000D02*
X130352748Y-62632000D01*
%TO.C,C3*%
X68559000Y-61926825D02*
X68559000Y-63349329D01*
X70379000Y-61926825D02*
X70379000Y-63349329D01*
%TO.C,C4*%
X80336692Y-61926825D02*
X80336692Y-63349329D01*
X82156692Y-61926825D02*
X82156692Y-63349329D01*
%TO.C,C11*%
X130958000Y-72910248D02*
X130958000Y-74332752D01*
X129138000Y-72910248D02*
X129138000Y-74332752D01*
%TO.C,R9*%
X124296000Y-65795936D02*
X124296000Y-68850064D01*
X121576000Y-65795936D02*
X121576000Y-68850064D01*
%TO.C,C6*%
X105712077Y-61926825D02*
X105712077Y-63349329D01*
X103892077Y-61926825D02*
X103892077Y-63349329D01*
%TO.C,R6*%
X91375013Y-73158077D02*
X92829141Y-73158077D01*
X91375013Y-74978077D02*
X92829141Y-74978077D01*
%TO.C,C10*%
X115544000Y-60993000D02*
X115544000Y-69228000D01*
X115544000Y-69228000D02*
X111024000Y-69228000D01*
X111024000Y-69228000D02*
X111024000Y-60993000D01*
%TO.C,C2*%
X93295825Y-45133077D02*
X94718329Y-45133077D01*
X93295825Y-43313077D02*
X94718329Y-43313077D01*
%TO.C,C1*%
X72340825Y-43313077D02*
X73763329Y-43313077D01*
X72340825Y-45133077D02*
X73763329Y-45133077D01*
%TO.C,C5*%
X92114384Y-61926825D02*
X92114384Y-63349329D01*
X93934384Y-61926825D02*
X93934384Y-63349329D01*
%TD*%
%LPC*%
D12*
%TO.C,REF\u002A\u002A*%
X111598109Y-81118109D03*
X114461891Y-83981891D03*
X115055000Y-82550000D03*
X113030000Y-80525000D03*
X111005000Y-82550000D03*
X114461891Y-81118109D03*
X113030000Y-84575000D03*
D13*
X113030000Y-82550000D03*
D12*
X111598109Y-83981891D03*
%TD*%
%TO.C,REF\u002A\u002A*%
X74133109Y-83981891D03*
D13*
X75565000Y-82550000D03*
D12*
X75565000Y-84575000D03*
X76996891Y-81118109D03*
X73540000Y-82550000D03*
X75565000Y-80525000D03*
X77590000Y-82550000D03*
X76996891Y-83981891D03*
X74133109Y-81118109D03*
%TD*%
D14*
%TO.C,NX4*%
X118264077Y-84863077D03*
X125884077Y-84863077D03*
X118264077Y-79783077D03*
X125884077Y-79783077D03*
X125884077Y-82323077D03*
X118264077Y-82323077D03*
X120804077Y-84863077D03*
X120804077Y-87403077D03*
X120804077Y-79783077D03*
X120804077Y-77243077D03*
X123344077Y-77243077D03*
X123344077Y-79805773D03*
X123344077Y-82323077D03*
X123344077Y-84863077D03*
X123344077Y-87460432D03*
X120804077Y-82323077D03*
%TD*%
%TO.C,NX3*%
X99806743Y-84863077D03*
X107426743Y-84863077D03*
X99806743Y-79783077D03*
X107426743Y-79783077D03*
X107426743Y-82323077D03*
X99806743Y-82323077D03*
X102346743Y-84863077D03*
X102346743Y-87403077D03*
X102346743Y-79783077D03*
X102346743Y-77243077D03*
X104886743Y-77243077D03*
X104886743Y-79805773D03*
X104886743Y-82323077D03*
X104886743Y-84863077D03*
X104886743Y-87460432D03*
X102346743Y-82323077D03*
%TD*%
D15*
%TO.C,C14*%
X115851077Y-58701077D03*
D16*
X115851077Y-53701077D03*
%TD*%
D17*
%TO.C,U2*%
X65913000Y-48148000D03*
D18*
X68453000Y-48148000D03*
X70993000Y-48148000D03*
X73533000Y-48148000D03*
X76073000Y-48148000D03*
X78613000Y-48148000D03*
X81153000Y-48148000D03*
X81153000Y-40528000D03*
X78613000Y-40528000D03*
X76073000Y-40528000D03*
X73533000Y-40528000D03*
X70993000Y-40528000D03*
X68453000Y-40528000D03*
X65913000Y-40528000D03*
%TD*%
D19*
%TO.C,U5*%
X77597000Y-52705000D03*
D20*
X77597000Y-55245000D03*
X77597000Y-57785000D03*
X77597000Y-60325000D03*
X77597000Y-62865000D03*
X77597000Y-65405000D03*
X77597000Y-67945000D03*
X77597000Y-70485000D03*
X85217000Y-70485000D03*
X85217000Y-67945000D03*
X85217000Y-65405000D03*
X85217000Y-62865000D03*
X85217000Y-60325000D03*
X85217000Y-57785000D03*
X85217000Y-55245000D03*
X85217000Y-52705000D03*
%TD*%
D14*
%TO.C,NX2*%
X88969410Y-84863077D03*
X81349410Y-84863077D03*
X81349410Y-79783077D03*
X88969410Y-79783077D03*
X88969410Y-82323077D03*
X81349410Y-82323077D03*
X83889410Y-84863077D03*
X83889410Y-87403077D03*
X83889410Y-79783077D03*
X83889410Y-77243077D03*
X86429410Y-77243077D03*
X86429410Y-79805773D03*
X86429410Y-82323077D03*
X86429410Y-84863077D03*
X86429410Y-87460432D03*
X83889410Y-82323077D03*
%TD*%
D19*
%TO.C,U7*%
X100965000Y-52705000D03*
D20*
X100965000Y-55245000D03*
X100965000Y-57785000D03*
X100965000Y-60325000D03*
X100965000Y-62865000D03*
X100965000Y-65405000D03*
X100965000Y-67945000D03*
X100965000Y-70485000D03*
X108585000Y-70485000D03*
X108585000Y-67945000D03*
X108585000Y-65405000D03*
X108585000Y-62865000D03*
X108585000Y-60325000D03*
X108585000Y-57785000D03*
X108585000Y-55245000D03*
X108585000Y-52705000D03*
%TD*%
D14*
%TO.C,NX1*%
X65432077Y-82323077D03*
X67972077Y-87460432D03*
X67972077Y-84863077D03*
X67972077Y-82323077D03*
X67972077Y-79805773D03*
X67972077Y-77243077D03*
X65432077Y-77243077D03*
X65432077Y-79783077D03*
X65432077Y-87403077D03*
X65432077Y-84863077D03*
X62892077Y-82323077D03*
X70512077Y-82323077D03*
X70512077Y-79783077D03*
X62892077Y-79783077D03*
X62892077Y-84863077D03*
X70512077Y-84863077D03*
%TD*%
D21*
%TO.C,Q1*%
X127000000Y-69977000D03*
D22*
X127000000Y-67437000D03*
X127000000Y-64897000D03*
%TD*%
D19*
%TO.C,U4*%
X65659000Y-52705000D03*
D20*
X65659000Y-55245000D03*
X65659000Y-57785000D03*
X65659000Y-60325000D03*
X65659000Y-62865000D03*
X65659000Y-65405000D03*
X65659000Y-67945000D03*
X65659000Y-70485000D03*
X73279000Y-70485000D03*
X73279000Y-67945000D03*
X73279000Y-65405000D03*
X73279000Y-62865000D03*
X73279000Y-60325000D03*
X73279000Y-57785000D03*
X73279000Y-55245000D03*
X73279000Y-52705000D03*
%TD*%
D23*
%TO.C,J2*%
X109855000Y-48699077D03*
D24*
X109855000Y-42699077D03*
D25*
X105155000Y-45699077D03*
%TD*%
D19*
%TO.C,U6*%
X89281000Y-52705000D03*
D20*
X89281000Y-55245000D03*
X89281000Y-57785000D03*
X89281000Y-60325000D03*
X89281000Y-62865000D03*
X89281000Y-65405000D03*
X89281000Y-67945000D03*
X89281000Y-70485000D03*
X96901000Y-70485000D03*
X96901000Y-67945000D03*
X96901000Y-65405000D03*
X96901000Y-62865000D03*
X96901000Y-60325000D03*
X96901000Y-57785000D03*
X96901000Y-55245000D03*
X96901000Y-52705000D03*
%TD*%
D17*
%TO.C,U3*%
X85979000Y-48133000D03*
D18*
X88519000Y-48133000D03*
X91059000Y-48133000D03*
X93599000Y-48133000D03*
X96139000Y-48133000D03*
X98679000Y-48133000D03*
X101219000Y-48133000D03*
X101219000Y-40513000D03*
X98679000Y-40513000D03*
X96139000Y-40513000D03*
X93599000Y-40513000D03*
X91059000Y-40513000D03*
X88519000Y-40513000D03*
X85979000Y-40513000D03*
%TD*%
D26*
%TO.C,R10*%
X132588000Y-65125000D03*
X132588000Y-68225000D03*
%TD*%
D27*
%TO.C,R5*%
X74677077Y-74068077D03*
X77777077Y-74068077D03*
%TD*%
D26*
%TO.C,R11*%
X132588000Y-70332000D03*
X132588000Y-73432000D03*
%TD*%
D28*
%TO.C,R8*%
X124359000Y-74068077D03*
X121259000Y-74068077D03*
%TD*%
D27*
%TO.C,R7*%
X106427077Y-74068077D03*
X109527077Y-74068077D03*
%TD*%
D29*
%TO.C,D1*%
X118618000Y-61943000D03*
X118618000Y-67343000D03*
%TD*%
D30*
%TO.C,U1*%
X133992077Y-42628077D03*
X133992077Y-44628077D03*
X133992077Y-46628077D03*
X133992077Y-48628077D03*
X133992077Y-50628077D03*
X133992077Y-52628077D03*
X133992077Y-54628077D03*
X133992077Y-56628077D03*
D31*
X131392077Y-58128077D03*
X129392077Y-58128077D03*
X127392077Y-58128077D03*
X125392077Y-58128077D03*
X123392077Y-58128077D03*
X121392077Y-58128077D03*
D30*
X118792077Y-56628077D03*
X118792077Y-54628077D03*
X118792077Y-52628077D03*
X118792077Y-50628077D03*
X118792077Y-48628077D03*
X118792077Y-46628077D03*
X118792077Y-44628077D03*
X118792077Y-42628077D03*
%TD*%
D32*
%TO.C,C9*%
X132626500Y-61722000D03*
X129501500Y-61722000D03*
%TD*%
D33*
%TO.C,C3*%
X69469000Y-61075577D03*
X69469000Y-64200577D03*
%TD*%
%TO.C,C4*%
X81246692Y-61075577D03*
X81246692Y-64200577D03*
%TD*%
%TO.C,C11*%
X130048000Y-72059000D03*
X130048000Y-75184000D03*
%TD*%
D34*
%TO.C,R9*%
X122936000Y-64923000D03*
X122936000Y-69723000D03*
%TD*%
D33*
%TO.C,C6*%
X104802077Y-61075577D03*
X104802077Y-64200577D03*
%TD*%
D27*
%TO.C,R6*%
X90552077Y-74068077D03*
X93652077Y-74068077D03*
%TD*%
D35*
%TO.C,C10*%
X113284000Y-67843000D03*
X113284000Y-61443000D03*
%TD*%
D36*
%TO.C,C2*%
X92444577Y-44223077D03*
X95569577Y-44223077D03*
%TD*%
%TO.C,C1*%
X71489577Y-44223077D03*
X74614577Y-44223077D03*
%TD*%
D33*
%TO.C,C5*%
X93024384Y-61075577D03*
X93024384Y-64200577D03*
%TD*%
%LPD*%
M02*
